<svg width="1920" height="1136" viewBox="0 0 1920 1136" fill="none" xmlns="http://www.w3.org/2000/svg">
<path d="M0 9.00025V1135C0 1135 120.8 1129.47 190.5 1100C247.068 1076.08 262.53 1027.76 322.5 1014.5C404.445 996.383 445.109 1071.64 529 1074C601.541 1076.04 638.942 1037.73 711.5 1039C800.267 1040.55 841.955 1093.53 930.5 1100C1080.79 1110.97 1151.84 994.37 1302.5 997.5C1422.81 999.999 1480.68 1071.6 1601 1074C1691.06 1075.79 1748.77 998.046 1829 1039C1875.14 1062.55 1920 1135.5 1920 1135.5V9.00001C1920 9.00001 1717.56 -10.8771 1589.5 8.49974C1442.87 30.6874 1367.69 99.8701 1219.5 93.9998C1118.53 90 1067.91 42.658 967 37.4997C836.038 30.8056 756.371 41.9737 636 93.9998C605.059 107.373 592.005 126.154 559 133C525.995 139.846 363.691 41.0582 263.5 76.4998C163.309 111.941 0 9.00025 0 9.00025Z" fill="url(#paint0_linear_18_213)"/>
<defs>
<linearGradient id="paint0_linear_18_213" x1="1920" y1="568" x2="-3.95548e-06" y2="567.998" gradientUnits="userSpaceOnUse">
<stop stop-color="#63BEFF" stop-opacity="0.85"/>
<stop stop-color="#63BEFF" stop-opacity="0.85"/>
<stop offset="0.0001" stop-color="#63BEFF" stop-opacity="0.72"/>
<stop offset="0.447057" stop-color="#63BEFF" stop-opacity="0.15"/>
<stop offset="1" stop-color="#63BEFF" stop-opacity="0.85"/>
</linearGradient>
</defs>
</svg>
