<svg width="659" height="627" viewBox="0 0 659 627" fill="none" xmlns="http://www.w3.org/2000/svg">
<path d="M491 297L491.964 296.732L491 297ZM490.002 330.936C489.967 331.487 490.385 331.962 490.936 331.998C491.487 332.033 491.962 331.615 491.998 331.064L490.002 330.936ZM435.5 230.5L434.504 230.591C434.51 230.656 434.523 230.721 434.541 230.784L435.5 230.5ZM450 275.5L450.857 274.984L450 275.5ZM519 284L519.617 283.213L519 284ZM536.5 297L536.007 297.87L536.5 297ZM596.5 307L595.757 307.669L596.5 307ZM608.017 337.682C608.118 338.225 608.639 338.584 609.182 338.483C609.725 338.382 610.084 337.861 609.983 337.318L608.017 337.682ZM495 263.622L494.389 264.414L495 263.622ZM588 237.5L587.71 238.457L588 237.5ZM625.5 260L625.273 260.974L625.5 260ZM658.142 260.99C658.689 260.912 659.068 260.405 658.99 259.858C658.912 259.311 658.405 258.932 657.858 259.01L658.142 260.99ZM604.996 366.414C604.949 365.864 604.464 365.456 603.914 365.504C603.364 365.551 602.956 366.036 603.004 366.586L604.996 366.414ZM599.5 410L600.415 410.404L599.5 410ZM511.5 448.5L510.75 447.839L511.5 448.5ZM490.095 481.574C489.86 482.074 490.074 482.669 490.574 482.905C491.074 483.14 491.669 482.926 491.905 482.426L490.095 481.574ZM185.5 278L185.937 278.9L185.5 278ZM155.5 304L154.732 303.359C154.575 303.547 154.493 303.786 154.5 304.031L155.5 304ZM257.5 233.5L256.544 233.205C256.504 233.338 256.491 233.477 256.507 233.615L257.5 233.5ZM246 267.5L246.572 268.32L246 267.5ZM125.5 513L124.814 513.728L125.5 513ZM212.5 525.5L213.309 524.912L212.5 525.5ZM223.018 556.687C223.121 557.229 223.644 557.586 224.187 557.482C224.729 557.379 225.086 556.856 224.982 556.313L223.018 556.687ZM114.462 497.5L113.502 497.219C113.469 497.331 113.456 497.449 113.464 497.566L114.462 497.5ZM42.5 520.5L42.21 521.457L42.5 520.5ZM0.622703 532.574C0.111236 532.782 -0.134468 533.366 0.0739077 533.877C0.282283 534.389 0.86583 534.634 1.3773 534.426L0.622703 532.574ZM157 352.5L157.96 352.781C157.989 352.68 158.003 352.575 158 352.469L157 352.5ZM159.5 428.5L160.138 427.73L159.5 428.5ZM177.27 438.683C177.647 439.086 178.28 439.108 178.683 438.73C179.086 438.353 179.108 437.72 178.73 437.317L177.27 438.683ZM99.5 432L99.4444 431.002L99.5 432ZM68.7165 427.524C68.1773 427.404 67.6433 427.744 67.5237 428.283C67.4041 428.823 67.7443 429.357 68.2835 429.476L68.7165 427.524ZM376.5 34L377.132 34.775L376.5 34ZM364.5 46.5L363.727 45.8652C363.602 46.0176 363.525 46.2035 363.505 46.3996L364.5 46.5ZM440.5 20.5L441.383 20.9699L440.5 20.5ZM340 149L339.153 148.468L340 149ZM294 166.5L294.595 167.304L294 166.5ZM270 193L269.182 192.425C269.122 192.511 269.075 192.605 269.044 192.705L270 193ZM359 101L359.93 101.368C359.964 101.282 359.986 101.192 359.995 101.1L359 101ZM345.5 135.105L344.57 134.737C344.548 134.794 344.53 134.853 344.519 134.913L345.5 135.105ZM420.5 156L419.685 156.58L420.5 156ZM431 181L431.996 180.909C431.991 180.853 431.981 180.797 431.966 180.743L431 181ZM42.5 585L41.6242 585.483L42.5 585ZM65.5 603.5L66.4298 603.132L65.5 603.5ZM64.5245 625.28C64.4029 625.819 64.7411 626.354 65.2798 626.475C65.8186 626.597 66.3539 626.259 66.4755 625.72L64.5245 625.28ZM444.349 265.271C444.492 265.804 445.04 266.121 445.574 265.977C446.107 265.834 446.423 265.286 446.28 264.752L444.349 265.271ZM448.44 270.573C448.2 270.076 447.603 269.866 447.105 270.105C446.607 270.345 446.398 270.942 446.637 271.44L448.44 270.573ZM451.58 279.172C451.967 279.566 452.6 279.572 452.994 279.185C453.388 278.798 453.394 278.165 453.007 277.771L451.58 279.172ZM456.51 280.436C456.029 280.164 455.419 280.332 455.146 280.812C454.874 281.293 455.042 281.903 455.522 282.176L456.51 280.436ZM462.796 284.904C463.333 285.034 463.873 284.704 464.003 284.167C464.132 283.63 463.802 283.09 463.265 282.96L462.796 284.904ZM467.8 283.852C467.255 283.762 466.741 284.132 466.652 284.677C466.563 285.222 466.932 285.736 467.477 285.825L467.8 283.852ZM474.9 286.966C475.444 287.059 475.961 286.692 476.053 286.148C476.146 285.603 475.78 285.087 475.235 284.994L474.9 286.966ZM479.92 285.984C479.387 285.841 478.839 286.158 478.695 286.691C478.552 287.224 478.869 287.773 479.402 287.916L479.92 285.984ZM485.845 290.844C486.283 291.181 486.911 291.098 487.247 290.659C487.583 290.221 487.5 289.593 487.062 289.257L485.845 290.844ZM490.412 293.025C490.131 292.55 489.517 292.393 489.042 292.674C488.567 292.955 488.409 293.568 488.691 294.044L490.412 293.025ZM490.527 300.53C490.574 301.081 491.058 301.489 491.608 301.442C492.159 301.395 492.567 300.91 492.52 300.36L490.527 300.53ZM492.744 304.783C492.73 304.23 492.271 303.794 491.719 303.809C491.167 303.823 490.731 304.282 490.745 304.834L492.744 304.783ZM490.767 311.785C490.759 312.337 491.201 312.791 491.753 312.799C492.305 312.806 492.759 312.365 492.767 311.813L490.767 311.785ZM492.673 316.195C492.688 315.643 492.253 315.183 491.701 315.168C491.149 315.152 490.689 315.587 490.673 316.139L492.673 316.195ZM490.417 323.106C490.392 323.658 490.819 324.125 491.371 324.15C491.923 324.174 492.39 323.747 492.415 323.195L490.417 323.106ZM492.2 327.567C492.229 327.015 491.806 326.544 491.255 326.515C490.703 326.485 490.232 326.909 490.203 327.46L492.2 327.567ZM349.302 137.082C349.841 137.201 350.375 136.86 350.494 136.32C350.613 135.781 350.272 135.247 349.733 135.129L349.302 137.082ZM354.753 136.073C354.207 135.987 353.695 136.36 353.609 136.905C353.523 137.451 353.895 137.963 354.441 138.049L354.753 136.073ZM362.727 139.027C363.277 139.072 363.761 138.663 363.807 138.113C363.853 137.563 363.444 137.079 362.893 137.033L362.727 139.027ZM368.022 137.379C367.471 137.35 367 137.773 366.97 138.324C366.94 138.876 367.363 139.347 367.915 139.376L368.022 137.379ZM376.197 139.725C376.749 139.745 377.213 139.314 377.234 138.762C377.254 138.21 376.823 137.746 376.271 137.726L376.197 139.725ZM381.448 137.939C380.897 137.912 380.428 138.338 380.401 138.889C380.375 139.441 380.801 139.91 381.352 139.936L381.448 137.939ZM389.539 140.538C390.088 140.597 390.581 140.2 390.641 139.651C390.7 139.102 390.303 138.609 389.754 138.549L389.539 140.538ZM394.942 139.282C394.398 139.185 393.879 139.547 393.781 140.09C393.684 140.634 394.046 141.154 394.59 141.251L394.942 139.282ZM402.424 143.29C402.943 143.477 403.516 143.207 403.703 142.687C403.889 142.167 403.619 141.595 403.099 141.408L402.424 143.29ZM407.96 143.529C407.47 143.273 406.866 143.463 406.61 143.952C406.355 144.442 406.544 145.046 407.034 145.302L407.96 143.529ZM413.642 149.825C414.057 150.189 414.689 150.147 415.053 149.731C415.416 149.316 415.374 148.684 414.959 148.32L413.642 149.825ZM418.693 152.081C418.331 151.664 417.7 151.619 417.282 151.981C416.865 152.343 416.821 152.974 417.183 153.392L418.693 152.081ZM421.841 160.038C422.109 160.521 422.717 160.695 423.2 160.427C423.683 160.159 423.857 159.55 423.589 159.068L421.841 160.038ZM425.959 163.828C425.732 163.324 425.14 163.1 424.637 163.327C424.133 163.554 423.909 164.147 424.136 164.65L425.959 163.828ZM427.213 172.356C427.398 172.876 427.97 173.148 428.49 172.962C429.011 172.777 429.282 172.205 429.097 171.685L427.213 172.356ZM430.77 176.685C430.604 176.158 430.043 175.865 429.516 176.03C428.989 176.195 428.696 176.756 428.861 177.283L430.77 176.685ZM430.35 184.898C430.4 185.448 430.887 185.854 431.437 185.804C431.987 185.754 432.392 185.267 432.342 184.717L430.35 184.898ZM432.775 189.477C432.725 188.927 432.238 188.521 431.688 188.571C431.138 188.621 430.733 189.108 430.783 189.658L432.775 189.477ZM431.475 197.273C431.525 197.823 432.012 198.229 432.562 198.179C433.112 198.129 433.517 197.642 433.467 197.092L431.475 197.273ZM433.9 201.852C433.85 201.302 433.363 200.896 432.813 200.946C432.263 200.996 431.858 201.483 431.908 202.033L433.9 201.852ZM432.6 209.648C432.65 210.198 433.137 210.604 433.687 210.554C434.237 210.504 434.642 210.017 434.592 209.467L432.6 209.648ZM435.025 214.227C434.975 213.677 434.488 213.271 433.938 213.321C433.388 213.371 432.983 213.858 433.033 214.408L435.025 214.227ZM433.725 222.023C433.775 222.573 434.262 222.979 434.812 222.929C435.362 222.879 435.767 222.392 435.717 221.842L433.725 222.023ZM436.15 226.602C436.1 226.052 435.613 225.646 435.063 225.696C434.513 225.746 434.108 226.233 434.158 226.783L436.15 226.602ZM435.887 235.323C436.044 235.852 436.601 236.154 437.131 235.997C437.66 235.84 437.962 235.284 437.805 234.754L435.887 235.323ZM439.488 240.427C439.331 239.898 438.774 239.596 438.244 239.753C437.715 239.91 437.413 240.466 437.57 240.996L439.488 240.427ZM440.262 250.073C440.419 250.602 440.976 250.904 441.506 250.747C442.035 250.59 442.337 250.034 442.18 249.504L440.262 250.073ZM443.863 255.177C443.706 254.648 443.149 254.346 442.619 254.503C442.09 254.66 441.788 255.216 441.945 255.746L443.863 255.177ZM448.428 260.099C448.968 259.984 449.314 259.454 449.2 258.913C449.085 258.373 448.555 258.028 448.014 258.142L448.428 260.099ZM453.011 257.155C452.468 257.254 452.108 257.775 452.207 258.318C452.307 258.861 452.827 259.221 453.371 259.122L453.011 257.155ZM461.314 257.901C461.862 257.834 462.253 257.336 462.186 256.787C462.12 256.239 461.621 255.849 461.073 255.915L461.314 257.901ZM466.175 255.424C465.624 255.462 465.208 255.94 465.246 256.491C465.284 257.042 465.762 257.458 466.313 257.42L466.175 255.424ZM474.287 257.312C474.838 257.341 475.308 256.916 475.337 256.365C475.365 255.813 474.941 255.343 474.389 255.315L474.287 257.312ZM479.539 255.847C478.994 255.759 478.481 256.13 478.393 256.675C478.305 257.22 478.676 257.734 479.221 257.821L479.539 255.847ZM486.785 259.924C487.295 260.136 487.88 259.895 488.092 259.385C488.304 258.875 488.062 258.289 487.552 258.078L486.785 259.924ZM492.196 260.46C491.726 260.17 491.11 260.317 490.821 260.787C490.531 261.257 490.677 261.873 491.148 262.163L492.196 260.46ZM498.122 267.433C498.545 267.788 499.175 267.734 499.531 267.311C499.887 266.888 499.832 266.258 499.41 265.902L498.122 267.433ZM504.006 269.882C503.592 269.516 502.96 269.556 502.594 269.97C502.229 270.384 502.268 271.016 502.682 271.381L504.006 269.882ZM509.956 277.796C510.373 278.158 511.005 278.113 511.367 277.696C511.729 277.279 511.684 276.647 511.267 276.285L509.956 277.796ZM515.865 280.188C515.439 279.836 514.809 279.895 514.457 280.321C514.105 280.747 514.165 281.377 514.591 281.729L515.865 280.188ZM520.991 286.876C521.419 287.225 522.049 287.161 522.398 286.733C522.747 286.305 522.683 285.675 522.255 285.326L520.991 286.876ZM525.499 287.999C525.073 287.647 524.443 287.708 524.091 288.134C523.74 288.56 523.8 289.19 524.226 289.542L525.499 287.999ZM529.555 293.729C530.001 294.054 530.627 293.955 530.951 293.508C531.276 293.061 531.177 292.436 530.73 292.111L529.555 293.729ZM534.15 294.43C533.683 294.135 533.065 294.275 532.77 294.742C532.475 295.209 532.615 295.826 533.081 296.121L534.15 294.43ZM539.62 299.614C540.132 299.82 540.714 299.572 540.921 299.06C541.128 298.548 540.88 297.965 540.368 297.759L539.62 299.614ZM544.835 299.152C544.296 299.029 543.76 299.367 543.638 299.905C543.515 300.444 543.852 300.979 544.391 301.102L544.835 299.152ZM552.28 302.02C552.832 302.032 553.29 301.594 553.301 301.041C553.313 300.489 552.875 300.032 552.323 300.02L552.28 302.02ZM557.085 299.913C556.534 299.946 556.114 300.42 556.147 300.972C556.18 301.523 556.654 301.943 557.206 301.91L557.085 299.913ZM564.98 301.164C565.528 301.1 565.921 300.603 565.857 300.055C565.793 299.506 565.296 299.113 564.748 299.177L564.98 301.164ZM569.575 298.627C569.026 298.685 568.627 299.177 568.685 299.726C568.743 300.275 569.234 300.674 569.784 300.616L569.575 298.627ZM577.413 300.15C577.965 300.152 578.414 299.705 578.416 299.153C578.417 298.6 577.971 298.152 577.419 298.15L577.413 300.15ZM582.386 298.477C581.839 298.401 581.333 298.783 581.257 299.33C581.181 299.877 581.563 300.382 582.11 300.458L582.386 298.477ZM589.19 302.584C589.684 302.83 590.285 302.63 590.531 302.135C590.778 301.641 590.577 301.041 590.083 300.794L589.19 302.584ZM594.327 303.543C593.899 303.194 593.269 303.258 592.92 303.686C592.571 304.114 592.635 304.744 593.063 305.093L594.327 303.543ZM597.784 310.251C598.099 310.705 598.722 310.818 599.175 310.503C599.629 310.189 599.742 309.566 599.428 309.112L597.784 310.251ZM601.709 312.847C601.445 312.362 600.838 312.182 600.353 312.445C599.867 312.708 599.687 313.315 599.951 313.801L601.709 312.847ZM602.786 319.884C602.992 320.396 603.575 320.644 604.087 320.437C604.599 320.23 604.847 319.647 604.64 319.135L602.786 319.884ZM606.152 323.181C605.971 322.659 605.402 322.382 604.88 322.563C604.358 322.743 604.082 323.313 604.262 323.835L606.152 323.181ZM606.26 330.3C606.407 330.832 606.957 331.145 607.49 330.999C608.022 330.852 608.335 330.302 608.189 329.769L606.26 330.3ZM609.253 333.938C609.126 333.401 608.588 333.067 608.05 333.194C607.513 333.32 607.179 333.859 607.306 334.396L609.253 333.938ZM498.404 261.409C498.786 261.009 498.771 260.376 498.372 259.995C497.973 259.613 497.34 259.628 496.958 260.027L498.404 261.409ZM500.48 256.5C500.081 256.882 500.067 257.515 500.449 257.914C500.831 258.313 501.464 258.327 501.863 257.945L500.48 256.5ZM507.71 252.76C508.137 252.41 508.2 251.78 507.85 251.353C507.5 250.925 506.87 250.863 506.443 251.213L507.71 252.76ZM510.386 248.151C509.941 248.478 509.845 249.104 510.172 249.549C510.499 249.994 511.125 250.09 511.57 249.762L510.386 248.151ZM518.055 245.421C518.527 245.135 518.678 244.52 518.392 244.048C518.105 243.575 517.491 243.424 517.018 243.711L518.055 245.421ZM521.366 241.247C520.877 241.505 520.69 242.11 520.948 242.598C521.206 243.087 521.811 243.274 522.3 243.016L521.366 241.247ZM529.362 239.715C529.873 239.507 530.118 238.923 529.91 238.411C529.701 237.9 529.117 237.655 528.606 237.864L529.362 239.715ZM533.291 236.12C532.768 236.296 532.486 236.863 532.662 237.387C532.839 237.91 533.406 238.192 533.929 238.016L533.291 236.12ZM541.432 235.908C541.97 235.786 542.308 235.251 542.186 234.712C542.064 234.173 541.528 233.836 540.989 233.958L541.432 235.908ZM545.897 233.007C545.352 233.095 544.982 233.608 545.07 234.153C545.157 234.699 545.671 235.069 546.216 234.981L545.897 233.007ZM553.964 234.122C554.515 234.088 554.934 233.613 554.9 233.062C554.866 232.511 554.392 232.092 553.84 232.126L553.964 234.122ZM558.835 231.965C558.282 231.967 557.836 232.416 557.838 232.968C557.839 233.521 558.288 233.967 558.84 233.965L558.835 231.965ZM566.637 234.295C567.187 234.343 567.672 233.936 567.719 233.385C567.767 232.835 567.36 232.35 566.809 232.303L566.637 234.295ZM571.769 232.864C571.222 232.788 570.717 233.169 570.641 233.716C570.565 234.263 570.946 234.768 571.493 234.845L571.769 232.864ZM579.185 236.227C579.724 236.345 580.258 236.004 580.376 235.464C580.494 234.925 580.153 234.392 579.613 234.273L579.185 236.227ZM584.457 235.451C583.923 235.308 583.375 235.626 583.233 236.159C583.091 236.693 583.408 237.241 583.941 237.383L584.457 235.451ZM591.837 239.994C592.341 240.219 592.933 239.992 593.158 239.488C593.382 238.984 593.156 238.392 592.651 238.167L591.837 239.994ZM597.759 240.928C597.294 240.631 596.676 240.768 596.379 241.234C596.082 241.699 596.219 242.318 596.684 242.614L597.759 240.928ZM603.781 248.013C604.202 248.371 604.833 248.32 605.191 247.899C605.549 247.479 605.498 246.848 605.078 246.49L603.781 248.013ZM609.375 250.164C608.952 249.81 608.321 249.866 607.967 250.29C607.612 250.713 607.669 251.344 608.092 251.698L609.375 250.164ZM615.562 257.101C616.04 257.379 616.652 257.218 616.93 256.741C617.208 256.264 617.047 255.652 616.57 255.373L615.562 257.101ZM621.522 257.747C621.006 257.551 620.428 257.811 620.233 258.328C620.037 258.844 620.296 259.421 620.813 259.617L621.522 257.747ZM628.643 261.603C629.189 261.683 629.697 261.305 629.777 260.759C629.857 260.212 629.479 259.704 628.932 259.624L628.643 261.603ZM633.024 260.064C632.473 260.024 631.994 260.437 631.953 260.988C631.912 261.539 632.326 262.018 632.877 262.059L633.024 260.064ZM639.645 262.283C640.197 262.281 640.644 261.833 640.643 261.281C640.642 260.728 640.193 260.281 639.641 260.283L639.645 262.283ZM643.79 260.2C643.238 260.22 642.807 260.684 642.827 261.236C642.847 261.788 643.311 262.219 643.863 262.199L643.79 260.2ZM650.598 261.796C651.149 261.751 651.558 261.268 651.513 260.718C651.468 260.167 650.986 259.758 650.435 259.803L650.598 261.796ZM654.569 259.41C654.02 259.469 653.624 259.963 653.683 260.512C653.743 261.061 654.236 261.458 654.785 261.398L654.569 259.41ZM493.674 478.826C493.922 478.332 493.724 477.731 493.23 477.483C492.737 477.234 492.136 477.433 491.887 477.926L493.674 478.826ZM494.211 473.43C493.952 473.918 494.139 474.523 494.627 474.782C495.115 475.04 495.72 474.854 495.978 474.366L494.211 473.43ZM499.865 467.317C500.14 466.839 499.975 466.227 499.496 465.952C499.017 465.677 498.406 465.842 498.131 466.321L499.865 467.317ZM500.715 461.954C500.428 462.425 500.577 463.041 501.048 463.329C501.519 463.616 502.135 463.467 502.423 462.996L500.715 461.954ZM506.781 456.263C507.095 455.809 506.982 455.186 506.528 454.872C506.073 454.557 505.45 454.671 505.136 455.125L506.781 456.263ZM508.145 451.002C507.807 451.439 507.887 452.067 508.323 452.405C508.76 452.743 509.388 452.664 509.726 452.227L508.145 451.002ZM514.874 446.46C515.277 446.083 515.299 445.451 514.922 445.047C514.545 444.643 513.912 444.622 513.509 444.998L514.874 446.46ZM517.325 441.852C516.878 442.176 516.778 442.802 517.103 443.249C517.428 443.695 518.053 443.795 518.5 443.47L517.325 441.852ZM524.969 439.644C525.468 439.407 525.679 438.81 525.442 438.311C525.204 437.813 524.607 437.601 524.109 437.839L524.969 439.644ZM528.648 435.948C528.129 436.136 527.86 436.71 528.048 437.229C528.236 437.748 528.81 438.017 529.329 437.829L528.648 435.948ZM536.618 435.709C537.156 435.585 537.492 435.048 537.368 434.51C537.244 433.971 536.707 433.636 536.169 433.76L536.618 435.709ZM540.948 432.799C540.404 432.894 540.04 433.412 540.135 433.956C540.23 434.5 540.748 434.864 541.292 434.769L540.948 432.799ZM548.876 433.676C549.425 433.611 549.816 433.113 549.75 432.564C549.684 432.016 549.186 431.625 548.638 431.691L548.876 433.676ZM553.446 431.154C552.896 431.212 552.498 431.704 552.556 432.253C552.614 432.803 553.106 433.201 553.656 433.143L553.446 431.154ZM561.337 432.329C561.886 432.267 562.281 431.772 562.219 431.223C562.157 430.674 561.662 430.279 561.113 430.341L561.337 432.329ZM565.873 429.751C565.326 429.826 564.944 430.331 565.02 430.878C565.095 431.425 565.6 431.807 566.147 431.732L565.873 429.751ZM573.827 430.391C574.366 430.272 574.707 429.738 574.588 429.199C574.469 428.66 573.935 428.319 573.396 428.438L573.827 430.391ZM577.983 427.242C577.455 427.404 577.158 427.963 577.32 428.491C577.482 429.019 578.041 429.316 578.569 429.154L577.983 427.242ZM585.88 426.197C586.369 425.94 586.558 425.336 586.301 424.847C586.044 424.358 585.44 424.169 584.951 424.426L585.88 426.197ZM588.912 421.96C588.467 422.287 588.372 422.913 588.699 423.358C589.026 423.803 589.652 423.898 590.097 423.571L588.912 421.96ZM595.828 418.067C596.173 417.635 596.103 417.006 595.671 416.661C595.24 416.316 594.61 416.387 594.266 416.818L595.828 418.067ZM596.889 412.954C596.614 413.433 596.779 414.044 597.258 414.319C597.736 414.595 598.348 414.43 598.623 413.951L596.889 412.954ZM602.024 406.061C602.187 405.534 601.892 404.973 601.365 404.81C600.837 404.646 600.277 404.941 600.113 405.469L602.024 406.061ZM601.478 400.084C601.367 400.625 601.716 401.154 602.257 401.264C602.798 401.375 603.326 401.026 603.437 400.485L601.478 400.084ZM604.773 391.44C604.828 390.89 604.427 390.4 603.877 390.346C603.328 390.291 602.838 390.692 602.783 391.242L604.773 391.44ZM603.204 385.651C603.175 386.203 603.598 386.673 604.15 386.703C604.701 386.732 605.172 386.308 605.201 385.757L603.204 385.651ZM605.4 376.649C605.396 376.097 604.945 375.652 604.393 375.656C603.841 375.66 603.396 376.111 603.4 376.663L605.4 376.649ZM603.264 371.051C603.287 371.603 603.753 372.032 604.305 372.009C604.857 371.986 605.286 371.52 605.263 370.968L603.264 371.051ZM116.391 503.211C116.681 503.681 117.297 503.827 117.767 503.537C118.237 503.247 118.383 502.63 118.093 502.16L116.391 503.211ZM122.283 508.045C121.934 507.617 121.304 507.553 120.876 507.902C120.448 508.252 120.385 508.881 120.734 509.309L122.283 508.045ZM128.088 516.413C128.539 516.732 129.163 516.625 129.482 516.175C129.802 515.724 129.695 515.1 129.244 514.781L128.088 516.413ZM133.49 517.235C132.989 517.004 132.395 517.223 132.164 517.725C131.933 518.227 132.152 518.821 132.654 519.052L133.49 517.235ZM140.713 521.468C141.258 521.557 141.772 521.187 141.861 520.642C141.949 520.096 141.579 519.583 141.034 519.494L140.713 521.468ZM145.982 519.958C145.43 519.941 144.969 520.374 144.951 520.926C144.933 521.478 145.367 521.94 145.919 521.958L145.982 519.958ZM154.212 521.589C154.761 521.529 155.158 521.036 155.098 520.487C155.038 519.937 154.545 519.541 153.996 519.6L154.212 521.589ZM159.004 518.913C158.459 519.001 158.088 519.515 158.177 520.06C158.265 520.605 158.779 520.975 159.324 520.887L159.004 518.913ZM167.393 519.38C167.934 519.27 168.284 518.743 168.174 518.201C168.064 517.66 167.537 517.31 166.995 517.42L167.393 519.38ZM172.001 516.399C171.459 516.508 171.109 517.036 171.219 517.577C171.328 518.119 171.855 518.469 172.397 518.359L172.001 516.399ZM180.387 516.89C180.932 516.804 181.305 516.293 181.22 515.747C181.135 515.202 180.623 514.828 180.078 514.914L180.387 516.89ZM185.2 514.258C184.65 514.31 184.247 514.798 184.299 515.348C184.351 515.898 184.839 516.301 185.389 516.249L185.2 514.258ZM193.378 516.102C193.929 516.144 194.409 515.731 194.451 515.18C194.492 514.63 194.08 514.149 193.529 514.108L193.378 516.102ZM198.731 514.918C198.195 514.786 197.653 515.114 197.521 515.65C197.389 516.187 197.717 516.729 198.253 516.861L198.731 514.918ZM205.398 519.947C205.859 520.252 206.479 520.125 206.784 519.664C207.088 519.204 206.962 518.583 206.501 518.279L205.398 519.947ZM210.577 521.661C210.191 521.266 209.558 521.259 209.163 521.645C208.768 522.031 208.76 522.664 209.146 523.059L210.577 521.661ZM213.49 528.864C213.768 529.341 214.38 529.502 214.857 529.224C215.334 528.946 215.496 528.334 215.217 527.857L213.49 528.864ZM217.237 531.712C217 531.213 216.404 531 215.905 531.236C215.406 531.473 215.193 532.069 215.429 532.568L217.237 531.712ZM218.013 538.786C218.204 539.305 218.778 539.57 219.297 539.38C219.815 539.189 220.081 538.615 219.89 538.096L218.013 538.786ZM221.291 542.168C221.121 541.642 220.558 541.354 220.032 541.523C219.506 541.692 219.218 542.255 219.387 542.781L221.291 542.168ZM221.287 549.287C221.428 549.821 221.976 550.139 222.509 549.998C223.043 549.857 223.362 549.309 223.221 548.775L221.287 549.287ZM224.254 552.941C224.13 552.403 223.592 552.068 223.054 552.192C222.516 552.317 222.181 552.854 222.306 553.392L224.254 552.941ZM69.1638 528.203C69.6518 527.944 69.8376 527.339 69.5789 526.851C69.3202 526.363 68.7149 526.177 68.227 526.436L69.1638 528.203ZM72.1926 524.317C71.7064 524.578 71.5244 525.185 71.7862 525.671C72.048 526.158 72.6545 526.339 73.1407 526.078L72.1926 524.317ZM79.5126 522.606C79.9962 522.34 80.1721 521.731 79.9054 521.248C79.6388 520.764 79.0305 520.588 78.5469 520.855L79.5126 522.606ZM82.4869 518.665C82.0051 518.935 81.8335 519.544 82.1035 520.026C82.3735 520.508 82.9829 520.68 83.4647 520.41L82.4869 518.665ZM89.7616 516.828C90.2398 516.552 90.4034 515.94 90.127 515.462C89.8506 514.984 89.239 514.82 88.7608 515.096L89.7616 516.828ZM92.6554 512.819C92.1801 513.1 92.023 513.714 92.3043 514.189C92.5857 514.664 93.1991 514.821 93.6743 514.54L92.6554 512.819ZM99.8751 510.778C100.344 510.486 100.487 509.869 100.194 509.4C99.902 508.932 99.2852 508.789 98.8166 509.081L99.8751 510.778ZM102.606 506.663C102.144 506.965 102.015 507.585 102.317 508.047C102.62 508.509 103.24 508.639 103.702 508.336L102.606 506.663ZM109.701 504.159C110.142 503.826 110.229 503.198 109.896 502.758C109.563 502.317 108.936 502.23 108.495 502.563L109.701 504.159ZM111.853 499.751C111.458 500.137 111.449 500.77 111.835 501.165C112.22 501.561 112.854 501.569 113.249 501.184L111.853 499.751ZM116.557 493.91C116.713 493.38 116.409 492.824 115.879 492.669C115.349 492.513 114.794 492.817 114.638 493.347L116.557 493.91ZM116.058 488.507C115.902 489.037 116.206 489.593 116.736 489.748C117.266 489.904 117.822 489.6 117.977 489.07L116.058 488.507ZM120.249 481.326C120.404 480.796 120.101 480.241 119.571 480.085C119.041 479.93 118.485 480.233 118.33 480.763L120.249 481.326ZM119.749 475.924C119.594 476.454 119.898 477.009 120.428 477.165C120.957 477.32 121.513 477.017 121.669 476.487L119.749 475.924ZM123.94 468.743C124.096 468.213 123.792 467.657 123.262 467.502C122.732 467.346 122.177 467.65 122.021 468.18L123.94 468.743ZM123.441 463.34C123.286 463.87 123.589 464.426 124.119 464.581C124.649 464.737 125.205 464.433 125.36 463.903L123.441 463.34ZM127.632 456.16C127.787 455.63 127.484 455.074 126.954 454.919C126.424 454.763 125.868 455.067 125.713 455.597L127.632 456.16ZM127.133 450.757C126.977 451.287 127.281 451.843 127.811 451.998C128.341 452.154 128.896 451.85 129.052 451.32L127.133 450.757ZM131.323 443.576C131.479 443.046 131.175 442.491 130.645 442.335C130.115 442.18 129.56 442.483 129.404 443.013L131.323 443.576ZM130.824 438.174C130.669 438.704 130.972 439.259 131.502 439.415C132.032 439.57 132.588 439.267 132.743 438.737L130.824 438.174ZM135.015 430.993C135.17 430.463 134.867 429.907 134.337 429.752C133.807 429.597 133.251 429.9 133.096 430.43L135.015 430.993ZM134.516 425.59C134.36 426.12 134.664 426.676 135.194 426.831C135.724 426.987 136.279 426.683 136.435 426.153L134.516 425.59ZM5.51653 532.776C6.0305 532.574 6.2833 531.993 6.08117 531.479C5.87905 530.965 5.29854 530.713 4.78457 530.915L5.51653 532.776ZM10.0214 528.886C9.50546 529.083 9.2468 529.66 9.44372 530.176C9.64063 530.692 10.2186 530.951 10.7345 530.754L10.0214 528.886ZM19.128 527.638C19.6476 527.451 19.9173 526.878 19.7304 526.358C19.5434 525.839 18.9705 525.569 18.4508 525.756L19.128 527.638ZM23.7583 523.894C23.2355 524.072 22.9561 524.64 23.1343 525.163C23.3124 525.686 23.8806 525.965 24.4034 525.787L23.7583 523.894ZM32.9064 523.088C33.4373 522.936 33.7445 522.383 33.5925 521.852C33.4405 521.321 32.8868 521.014 32.3559 521.166L32.9064 523.088ZM37.8699 519.792C37.3279 519.898 36.975 520.424 37.0815 520.966C37.188 521.508 37.7136 521.861 38.2555 521.754L37.8699 519.792ZM45.7419 522.638C46.2629 522.821 46.8338 522.547 47.0171 522.026C47.2004 521.505 46.9266 520.934 46.4056 520.751L45.7419 522.638ZM50.8577 522.36C50.3395 522.169 49.7646 522.434 49.5736 522.953C49.3826 523.471 49.6478 524.046 50.166 524.237L50.8577 522.36ZM57.225 526.886C57.7412 527.082 58.3189 526.823 58.5153 526.307C58.7117 525.791 58.4525 525.213 57.9363 525.017L57.225 526.886ZM62.3423 526.704C61.8269 526.506 61.2482 526.762 61.0496 527.278C60.8509 527.793 61.1077 528.372 61.6231 528.57L62.3423 526.704ZM62.1091 531.212C61.7426 531.625 61.7803 532.257 62.1934 532.623C62.6065 532.99 63.2385 532.952 63.6051 532.539L62.1091 531.212ZM60.4277 536.249C60.7798 535.823 60.7203 535.193 60.2948 534.841C59.8693 534.489 59.239 534.548 58.8869 534.974L60.4277 536.249ZM54.0023 541.213C53.6741 541.658 53.7682 542.284 54.2124 542.612C54.6566 542.94 55.2827 542.846 55.6109 542.402L54.0023 541.213ZM52.7877 546.378C53.0985 545.922 52.9803 545.3 52.5238 544.989C52.0673 544.678 51.4452 544.796 51.1344 545.253L52.7877 546.378ZM46.9041 551.97C46.6282 552.449 46.7924 553.06 47.2709 553.336C47.7493 553.612 48.3608 553.448 48.6367 552.969L46.9041 551.97ZM46.332 557.244C46.5791 556.75 46.379 556.149 45.8851 555.902C45.3912 555.655 44.7905 555.855 44.5434 556.349L46.332 557.244ZM41.4034 563.693C41.2214 564.215 41.4966 564.785 42.018 564.967C42.5395 565.149 43.1097 564.874 43.2917 564.352L41.4034 563.693ZM41.956 568.962C42.078 568.423 41.7402 567.888 41.2016 567.766C40.6629 567.644 40.1274 567.982 40.0054 568.52L41.956 568.962ZM39.2076 576.583C39.2332 577.135 39.7012 577.561 40.2529 577.535C40.8046 577.51 41.231 577.042 41.2054 576.49L39.2076 576.583ZM41.9541 581.093C41.7987 580.563 41.2431 580.26 40.7131 580.415C40.1831 580.571 39.8795 581.126 40.035 581.656L41.9541 581.093ZM44.6495 589.399C45.0502 589.78 45.6831 589.763 46.0633 589.362C46.4434 588.962 46.4268 588.329 46.0262 587.949L44.6495 589.399ZM50.5798 591.08C50.0903 590.824 49.4861 591.014 49.2303 591.503C48.9745 591.993 49.1639 592.597 49.6534 592.853L50.5798 591.08ZM58.0362 596.849C58.5182 597.119 59.1275 596.947 59.397 596.464C59.6665 595.982 59.4942 595.373 59.0121 595.104L58.0362 596.849ZM63.8491 598.873C63.485 598.458 62.8531 598.417 62.4379 598.781C62.0227 599.145 61.9813 599.777 62.3455 600.192L63.8491 598.873ZM65.4349 606.976C65.5359 607.519 66.0578 607.877 66.6008 607.776C67.1438 607.675 67.5022 607.154 67.4012 606.61L65.4349 606.976ZM67.8707 611.005C67.8481 610.453 67.3825 610.024 66.8307 610.047C66.2789 610.07 65.8498 610.535 65.8723 611.087L67.8707 611.005ZM65.6545 617.796C65.6028 618.345 66.0066 618.833 66.5565 618.885C67.1063 618.936 67.594 618.533 67.6457 617.983L65.6545 617.796ZM67.1048 622.291C67.1901 621.745 66.8168 621.233 66.2712 621.148C65.7255 621.063 65.214 621.436 65.1288 621.982L67.1048 622.291ZM144.961 397.089C145.117 396.559 144.813 396.004 144.283 395.848C143.753 395.693 143.198 395.996 143.042 396.526L144.961 397.089ZM144.396 391.911C144.241 392.441 144.544 392.996 145.074 393.152C145.604 393.307 146.16 393.004 146.315 392.474L144.396 391.911ZM148.482 385.089C148.637 384.559 148.333 384.004 147.803 383.848C147.274 383.693 146.718 383.996 146.562 384.526L148.482 385.089ZM147.916 379.911C147.761 380.441 148.065 380.996 148.594 381.152C149.124 381.307 149.68 381.004 149.836 380.474L147.916 379.911ZM152.002 373.089C152.157 372.559 151.854 372.004 151.324 371.848C150.794 371.693 150.238 371.996 150.083 372.526L152.002 373.089ZM151.437 367.911C151.281 368.441 151.585 368.996 152.115 369.152C152.645 369.307 153.2 369.004 153.356 368.474L151.437 367.911ZM155.522 361.089C155.678 360.559 155.374 360.004 154.844 359.848C154.314 359.693 153.759 359.996 153.603 360.526L155.522 361.089ZM154.957 355.911C154.802 356.441 155.105 356.996 155.635 357.152C156.165 357.307 156.721 357.004 156.876 356.474L154.957 355.911ZM157.884 348.738C157.867 348.186 157.406 347.753 156.854 347.77C156.302 347.787 155.868 348.248 155.885 348.8L157.884 348.738ZM155.741 344.137C155.758 344.689 156.219 345.122 156.771 345.105C157.323 345.088 157.757 344.627 157.74 344.075L155.741 344.137ZM157.509 336.613C157.492 336.061 157.031 335.628 156.479 335.645C155.927 335.662 155.493 336.123 155.51 336.675L157.509 336.613ZM155.366 332.012C155.383 332.564 155.844 332.997 156.396 332.98C156.948 332.963 157.382 332.502 157.365 331.95L155.366 332.012ZM157.134 324.488C157.117 323.936 156.656 323.503 156.104 323.52C155.552 323.537 155.118 323.998 155.135 324.55L157.134 324.488ZM154.991 319.887C155.008 320.439 155.469 320.872 156.021 320.855C156.573 320.838 157.007 320.377 156.99 319.825L154.991 319.887ZM156.759 312.363C156.742 311.811 156.281 311.378 155.729 311.395C155.177 311.412 154.743 311.873 154.76 312.425L156.759 312.363ZM154.616 307.762C154.633 308.314 155.094 308.747 155.646 308.73C156.198 308.713 156.632 308.252 156.615 307.7L154.616 307.762ZM158.94 301.592C159.31 301.182 159.277 300.549 158.867 300.179C158.457 299.809 157.825 299.842 157.455 300.252L158.94 301.592ZM160.957 296.486C160.575 296.885 160.589 297.518 160.988 297.9C161.386 298.282 162.02 298.268 162.402 297.869L160.957 296.486ZM168.18 292.127C168.582 291.748 168.6 291.115 168.221 290.713C167.843 290.311 167.21 290.293 166.808 290.672L168.18 292.127ZM170.627 287.205C170.21 287.568 170.167 288.2 170.53 288.616C170.893 289.033 171.524 289.076 171.941 288.713L170.627 287.205ZM178.257 283.638C178.703 283.312 178.801 282.687 178.475 282.241C178.15 281.794 177.524 281.697 177.078 282.022L178.257 283.638ZM181.395 279.119C180.924 279.407 180.775 280.023 181.063 280.494C181.351 280.965 181.967 281.114 182.438 280.826L181.395 279.119ZM189.36 277.499C189.883 277.32 190.162 276.752 189.984 276.229C189.806 275.707 189.237 275.428 188.715 275.606L189.36 277.499ZM193.44 274.321C192.9 274.435 192.554 274.966 192.668 275.506C192.782 276.047 193.313 276.392 193.853 276.278L193.44 274.321ZM201.301 275.232C201.851 275.186 202.26 274.702 202.214 274.152C202.168 273.602 201.684 273.193 201.134 273.239L201.301 275.232ZM205.951 272.949C205.4 272.972 204.97 273.437 204.992 273.989C205.015 274.541 205.48 274.97 206.032 274.948L205.951 272.949ZM213.653 274.775C214.205 274.767 214.646 274.314 214.639 273.761C214.632 273.209 214.178 272.768 213.626 272.775L213.653 274.775ZM218.398 272.7C217.846 272.711 217.408 273.169 217.42 273.721C217.432 274.273 217.889 274.711 218.441 274.699L218.398 272.7ZM226.137 274.364C226.688 274.323 227.101 273.843 227.06 273.292C227.018 272.742 226.538 272.329 225.988 272.37L226.137 274.364ZM230.678 271.876C230.131 271.953 229.75 272.459 229.827 273.005C229.903 273.552 230.409 273.934 230.956 273.857L230.678 271.876ZM238.583 272.179C239.109 272.011 239.4 271.449 239.232 270.923C239.065 270.396 238.502 270.106 237.976 270.273L238.583 272.179ZM242.265 268.55C241.77 268.797 241.569 269.397 241.815 269.891C242.062 270.386 242.662 270.587 243.156 270.341L242.265 268.55ZM249.651 265.735C250.041 265.343 250.04 264.71 249.649 264.32C249.258 263.93 248.625 263.931 248.235 264.323L249.651 265.735ZM251.125 260.749C250.822 261.211 250.95 261.831 251.411 262.134C251.873 262.438 252.493 262.31 252.796 261.848L251.125 260.749ZM256.233 254.71C256.412 254.187 256.133 253.618 255.61 253.44C255.088 253.261 254.519 253.539 254.34 254.062L256.233 254.71ZM255.585 249.544C255.469 250.084 255.812 250.616 256.352 250.732C256.892 250.848 257.424 250.505 257.54 249.965L255.585 249.544ZM258.595 242.199C258.631 241.648 258.213 241.173 257.662 241.137C257.11 241.102 256.635 241.52 256.6 242.071L258.595 242.199ZM256.711 237.352C256.72 237.904 257.175 238.344 257.728 238.335C258.28 238.325 258.72 237.87 258.71 237.318L256.711 237.352ZM259.738 229.641C259.9 229.113 259.605 228.554 259.077 228.391C258.549 228.228 257.989 228.524 257.827 229.051L259.738 229.641ZM259.429 223.859C259.266 224.387 259.562 224.946 260.09 225.109C260.617 225.272 261.177 224.976 261.34 224.449L259.429 223.859ZM263.904 216.141C264.067 215.613 263.771 215.054 263.244 214.891C262.716 214.728 262.156 215.024 261.993 215.551L263.904 216.141ZM263.596 210.359C263.433 210.887 263.729 211.446 264.256 211.609C264.784 211.772 265.344 211.476 265.507 210.949L263.596 210.359ZM268.071 202.641C268.234 202.113 267.938 201.554 267.41 201.391C266.883 201.228 266.323 201.524 266.16 202.051L268.071 202.641ZM267.762 196.859C267.6 197.387 267.895 197.946 268.423 198.109C268.951 198.272 269.511 197.976 269.673 197.449L267.762 196.859ZM272.971 190.629C273.302 190.186 273.212 189.56 272.769 189.229C272.327 188.898 271.701 188.988 271.37 189.43L272.971 190.629ZM274.177 185.768C273.836 186.203 273.912 186.831 274.346 187.172C274.781 187.513 275.409 187.437 275.75 187.003L274.177 185.768ZM280.381 181.327C280.739 180.906 280.688 180.275 280.267 179.917C279.846 179.56 279.215 179.611 278.858 180.032L280.381 181.327ZM281.906 176.549C281.536 176.959 281.568 177.591 281.978 177.961C282.388 178.332 283.02 178.299 283.391 177.889L281.906 176.549ZM288.439 172.626C288.836 172.241 288.845 171.608 288.46 171.212C288.075 170.816 287.442 170.807 287.046 171.192L288.439 172.626ZM290.481 168.04C290.062 168.4 290.014 169.031 290.374 169.45C290.734 169.869 291.365 169.917 291.784 169.557L290.481 168.04ZM297.773 165.287C298.259 165.025 298.441 164.419 298.179 163.933C297.917 163.446 297.31 163.265 296.824 163.527L297.773 165.287ZM301.445 161.516C300.923 161.696 300.645 162.265 300.824 162.787C301.004 163.309 301.573 163.587 302.095 163.408L301.445 161.516ZM309.515 161.655C310.061 161.57 310.435 161.06 310.351 160.514C310.267 159.968 309.756 159.594 309.21 159.678L309.515 161.655ZM314.102 159.062C313.552 159.121 313.154 159.613 313.213 160.162C313.271 160.711 313.763 161.11 314.312 161.051L314.102 159.062ZM322.112 160.182C322.659 160.105 323.039 159.599 322.962 159.052C322.884 158.505 322.378 158.125 321.831 158.202L322.112 160.182ZM326.522 157.31C325.987 157.446 325.662 157.989 325.798 158.525C325.933 159.06 326.477 159.385 327.012 159.249L326.522 157.31ZM334.481 156.11C334.944 155.809 335.075 155.189 334.774 154.726C334.473 154.264 333.854 154.132 333.391 154.434L334.481 156.11ZM336.905 151.444C336.532 151.852 336.561 152.485 336.969 152.857C337.377 153.229 338.01 153.2 338.382 152.792L336.905 151.444ZM343.196 145.435C343.446 144.943 343.248 144.341 342.756 144.092C342.263 143.842 341.661 144.039 341.412 144.532L343.196 145.435ZM343.471 139.329C343.316 139.859 343.62 140.414 344.15 140.57C344.68 140.725 345.235 140.422 345.391 139.892L343.471 139.329ZM143.17 404.02C143.374 404.533 143.955 404.785 144.468 404.582C144.982 404.379 145.233 403.798 145.03 403.284L143.17 404.02ZM146.638 407.135C146.416 406.63 145.826 406.4 145.32 406.622C144.815 406.844 144.585 407.434 144.807 407.94L146.638 407.135ZM147.741 414.085C147.996 414.575 148.599 414.766 149.09 414.511C149.58 414.257 149.771 413.653 149.516 413.163L147.741 414.085ZM151.524 416.809C151.245 416.333 150.633 416.173 150.156 416.452C149.68 416.731 149.519 417.343 149.798 417.82L151.524 416.809ZM153.564 423.543C153.895 423.985 154.522 424.075 154.964 423.744C155.406 423.413 155.496 422.786 155.165 422.344L153.564 423.543ZM157.789 425.5C157.412 425.096 156.779 425.075 156.376 425.452C155.972 425.83 155.951 426.462 156.328 426.866L157.789 425.5ZM161.644 431.205C162.121 431.483 162.733 431.321 163.011 430.844C163.289 430.367 163.128 429.755 162.65 429.477L161.644 431.205ZM166.152 431.15C165.639 430.946 165.057 431.196 164.853 431.709C164.648 432.222 164.899 432.804 165.412 433.008L166.152 431.15ZM171.5 435.191C172.016 435.388 172.594 435.129 172.79 434.612C172.987 434.096 172.728 433.519 172.211 433.322L171.5 435.191ZM176.019 435.128C175.549 434.839 174.933 434.986 174.644 435.457C174.355 435.927 174.502 436.543 174.972 436.832L176.019 435.128ZM138.541 418.974C138.696 418.444 138.393 417.888 137.863 417.733C137.333 417.577 136.777 417.881 136.622 418.411L138.541 418.974ZM137.835 414.276C137.679 414.806 137.983 415.362 138.513 415.517C139.043 415.673 139.598 415.369 139.754 414.839L137.835 414.276ZM141.695 408.224C141.85 407.694 141.547 407.138 141.017 406.983C140.487 406.827 139.931 407.131 139.776 407.661L141.695 408.224ZM140.988 403.526C140.833 404.056 141.137 404.612 141.667 404.767C142.196 404.923 142.752 404.619 142.908 404.089L140.988 403.526ZM73.0333 430.427C73.5762 430.528 74.0984 430.17 74.1996 429.627C74.3008 429.084 73.9427 428.562 73.3998 428.461L73.0333 430.427ZM79.2952 429.47C78.7495 429.385 78.2382 429.759 78.1532 430.304C78.0683 430.85 78.4418 431.361 78.9875 431.446L79.2952 429.47ZM88.5976 432.66C89.1475 432.711 89.6345 432.307 89.6854 431.757C89.7362 431.207 89.3316 430.72 88.7817 430.669L88.5976 432.66ZM94.7198 431.045C94.1677 431.029 93.7071 431.463 93.691 432.015C93.6749 432.567 94.1094 433.028 94.6614 433.044L94.7198 431.045ZM103.551 432.727C104.102 432.682 104.511 432.199 104.466 431.649C104.421 431.098 103.939 430.688 103.388 430.733L103.551 432.727ZM108.29 430.229C107.742 430.298 107.354 430.799 107.424 431.346C107.493 431.894 107.994 432.282 108.542 432.213L108.29 430.229ZM116.473 430.818C117.011 430.693 117.346 430.156 117.222 429.618C117.098 429.08 116.561 428.745 116.023 428.869L116.473 430.818ZM120.752 427.594C120.224 427.757 119.929 428.317 120.092 428.845C120.254 429.373 120.814 429.668 121.342 429.505L120.752 427.594ZM128.9 426.727C129.409 426.512 129.647 425.925 129.432 425.416C129.217 424.908 128.63 424.67 128.121 424.885L128.9 426.727ZM132.613 422.858C132.114 423.096 131.903 423.693 132.14 424.192C132.378 424.69 132.975 424.901 133.473 424.664L132.613 422.858ZM347.814 131.975C348.018 131.462 347.766 130.881 347.253 130.677C346.739 130.474 346.158 130.726 345.955 131.239L347.814 131.975ZM347.686 126.867C347.482 127.38 347.734 127.961 348.247 128.165C348.761 128.368 349.342 128.116 349.545 127.603L347.686 126.867ZM352.314 120.607C352.518 120.093 352.266 119.512 351.753 119.309C351.239 119.106 350.658 119.357 350.455 119.871L352.314 120.607ZM352.186 115.498C351.982 116.012 352.234 116.593 352.747 116.796C353.261 116.999 353.842 116.748 354.045 116.234L352.186 115.498ZM356.814 109.238C357.018 108.725 356.766 108.144 356.253 107.941C355.739 107.737 355.158 107.989 354.955 108.502L356.814 109.238ZM356.686 104.13C356.482 104.643 356.734 105.225 357.247 105.428C357.761 105.631 358.342 105.38 358.545 104.866L356.686 104.13ZM360.418 96.9081C360.473 96.3586 360.073 95.8682 359.523 95.8127C358.974 95.7573 358.484 96.1578 358.428 96.7073L360.418 96.9081ZM358.957 91.4669C358.902 92.0164 359.302 92.5068 359.852 92.5623C360.401 92.6177 360.891 92.2172 360.947 91.6677L358.957 91.4669ZM361.793 83.2831C361.848 82.7336 361.448 82.2432 360.898 82.1877C360.349 82.1323 359.859 82.5328 359.803 83.0823L361.793 83.2831ZM360.332 77.8419C360.277 78.3914 360.677 78.8818 361.227 78.9373C361.776 78.9927 362.266 78.5922 362.322 78.0427L360.332 77.8419ZM363.168 69.6581C363.223 69.1086 362.823 68.6182 362.273 68.5627C361.724 68.5073 361.234 68.9078 361.178 69.4573L363.168 69.6581ZM361.707 64.2169C361.652 64.7664 362.052 65.2568 362.602 65.3123C363.151 65.3677 363.641 64.9672 363.697 64.4177L361.707 64.2169ZM364.543 56.0331C364.599 55.4836 364.198 54.9932 363.648 54.9377C363.099 54.8823 362.609 55.2828 362.553 55.8323L364.543 56.0331ZM363.082 50.5919C363.027 51.1414 363.427 51.6318 363.977 51.6873C364.526 51.7427 365.016 51.3422 365.072 50.7927L363.082 50.5919ZM368.732 43.1279C369.1 42.7164 369.065 42.0842 368.654 41.7159C368.242 41.3476 367.61 41.3826 367.242 41.7942L368.732 43.1279ZM371.86 36.896C371.468 37.2858 371.467 37.9189 371.857 38.3102C372.247 38.7015 372.88 38.7027 373.271 38.313L371.86 36.896ZM380.507 32.4886C380.99 32.221 381.164 31.6124 380.897 31.1293C380.629 30.6462 380.021 30.4715 379.537 30.7391L380.507 32.4886ZM384.627 28.605C384.098 28.7643 383.799 29.3221 383.958 29.8509C384.117 30.3797 384.675 30.6793 385.204 30.5199L384.627 28.605ZM393.34 29.2448C393.892 29.2224 394.321 28.7569 394.299 28.2051C394.277 27.6533 393.811 27.2241 393.259 27.2464L393.34 29.2448ZM398.669 27.3023C398.117 27.2726 397.646 27.6955 397.616 28.247C397.587 28.7985 398.01 29.2697 398.561 29.2994L398.669 27.3023ZM406.964 30.1064C407.512 30.1736 408.011 29.7836 408.078 29.2354C408.145 28.6872 407.755 28.1884 407.207 28.1213L406.964 30.1064ZM412.484 28.7719C411.935 28.7072 411.438 29.0994 411.374 29.6479C411.309 30.1964 411.701 30.6935 412.25 30.7582L412.484 28.7719ZM420.828 31.4406C421.38 31.4515 421.836 31.0128 421.847 30.4606C421.858 29.9084 421.419 29.4519 420.867 29.441L420.828 31.4406ZM426.027 29.2051C425.479 29.2743 425.091 29.7746 425.16 30.3225C425.229 30.8705 425.73 31.2586 426.278 31.1894L426.027 29.2051ZM434.689 28.3828C435.158 28.0913 435.302 27.4747 435.01 27.0056C434.718 26.5365 434.102 26.3926 433.633 26.6841L434.689 28.3828ZM437.376 23.4031C437.022 23.8275 437.08 24.458 437.505 24.8114C437.929 25.1648 438.56 25.1072 438.913 24.6827L437.376 23.4031ZM442.711 18.0247C442.909 17.5095 442.653 16.9305 442.138 16.7316C441.623 16.5326 441.044 16.789 440.845 17.3042L442.711 18.0247ZM442.04 13.698C441.888 14.229 442.195 14.7826 442.726 14.9347C443.257 15.0868 443.81 14.7797 443.963 14.2487L442.04 13.698ZM445.413 8.10565C445.518 7.56347 445.163 7.03872 444.621 6.93359C444.079 6.82847 443.554 7.18278 443.449 7.72497L445.413 8.10565ZM444.102 3.93361C444.019 4.47969 444.395 4.98933 444.941 5.07194C445.487 5.15456 445.997 4.77885 446.08 4.23278L444.102 3.93361ZM443.264 260.168C443.586 262.058 443.932 263.721 444.349 265.271L446.28 264.752C445.885 263.279 445.551 261.68 445.236 259.832L443.264 260.168ZM446.637 271.44C447.333 272.887 448.155 274.373 449.143 276.016L450.857 274.984C449.89 273.378 449.1 271.948 448.44 270.573L446.637 271.44ZM449.143 276.016C449.861 277.208 450.679 278.253 451.58 279.172L453.007 277.771C452.215 276.964 451.494 276.042 450.857 274.984L449.143 276.016ZM455.522 282.176C457.766 283.45 460.247 284.288 462.796 284.904L463.265 282.96C460.823 282.37 458.536 281.587 456.51 280.436L455.522 282.176ZM467.477 285.825C468.732 286.031 469.993 286.215 471.233 286.397C472.477 286.58 473.702 286.763 474.9 286.966L475.235 284.994C474.012 284.787 472.767 284.602 471.525 284.419C470.279 284.235 469.036 284.054 467.8 283.852L467.477 285.825ZM479.402 287.916C481.888 288.583 484.074 289.487 485.845 290.844L487.062 289.257C485.005 287.681 482.543 286.688 479.92 285.984L479.402 287.916ZM488.691 294.044C489.239 294.97 489.694 296.035 490.036 297.268L491.964 296.732C491.578 295.344 491.056 294.115 490.412 293.025L488.691 294.044ZM490.036 297.268C490.241 298.004 490.406 299.113 490.527 300.53L492.52 300.36C492.396 298.91 492.219 297.652 491.964 296.732L490.036 297.268ZM490.745 304.834C490.8 306.983 490.801 309.361 490.767 311.785L492.767 311.813C492.801 309.373 492.8 306.966 492.744 304.783L490.745 304.834ZM490.673 316.139C490.604 318.602 490.511 320.991 490.417 323.106L492.415 323.195C492.509 321.072 492.603 318.672 492.673 316.195L490.673 316.139ZM490.203 327.46C490.145 328.533 490.095 329.403 490.059 330.004C490.041 330.305 490.027 330.538 490.017 330.696C490.012 330.775 490.008 330.835 490.006 330.875C490.005 330.895 490.004 330.911 490.003 330.921C490.003 330.926 490.002 330.93 490.002 330.932C490.002 330.933 490.002 330.934 490.002 330.935C490.002 330.935 490.002 330.935 490.002 330.936C490.002 330.936 490.002 330.936 490.002 330.936V330.936C490.002 330.936 490.002 330.936 491 331C491.998 331.064 491.998 331.064 491.998 331.064C491.998 331.064 491.998 331.064 491.998 331.064C491.998 331.064 491.998 331.064 491.998 331.064C491.998 331.064 491.998 331.063 491.998 331.063C491.998 331.062 491.998 331.061 491.998 331.06C491.998 331.057 491.999 331.053 491.999 331.048C492 331.038 492.001 331.022 492.002 331.002C492.005 330.96 492.008 330.9 492.013 330.82C492.023 330.66 492.038 330.425 492.056 330.123C492.092 329.518 492.142 328.645 492.2 327.567L490.203 327.46ZM345.232 136.069C346.592 136.448 347.949 136.783 349.302 137.082L349.733 135.129C348.413 134.838 347.092 134.511 345.768 134.142L345.232 136.069ZM354.441 138.049C357.23 138.49 359.996 138.799 362.727 139.027L362.893 137.033C360.199 136.809 357.484 136.505 354.753 136.073L354.441 138.049ZM367.915 139.376C370.719 139.527 373.487 139.624 376.197 139.725L376.271 137.726C373.555 137.626 370.806 137.529 368.022 137.379L367.915 139.376ZM381.352 139.936C384.152 140.071 386.882 140.25 389.539 140.538L389.754 138.549C387.042 138.255 384.268 138.074 381.448 137.939L381.352 139.936ZM394.59 141.251C397.301 141.735 399.915 142.39 402.424 143.29L403.099 141.408C400.465 140.463 397.74 139.782 394.942 139.282L394.59 141.251ZM407.034 145.302C409.338 146.506 411.543 147.989 413.642 149.825L414.959 148.32C412.737 146.376 410.399 144.804 407.96 143.529L407.034 145.302ZM417.183 153.392C418.037 154.377 418.872 155.437 419.685 156.58L421.315 155.42C420.466 154.227 419.592 153.116 418.693 152.081L417.183 153.392ZM419.685 156.58C420.427 157.622 421.147 158.789 421.841 160.038L423.589 159.068C422.869 157.769 422.109 156.536 421.315 155.42L419.685 156.58ZM424.136 164.65C425.31 167.253 426.347 169.929 427.213 172.356L429.097 171.685C428.219 169.222 427.161 166.493 425.959 163.828L424.136 164.65ZM428.861 177.283C429.241 178.493 429.534 179.489 429.733 180.181C429.832 180.528 429.908 180.798 429.958 180.981C429.984 181.073 430.003 181.142 430.015 181.189C430.022 181.212 430.026 181.23 430.029 181.241C430.031 181.247 430.032 181.251 430.033 181.254C430.033 181.255 430.033 181.256 430.034 181.257C430.034 181.257 430.034 181.257 430.034 181.257C430.034 181.257 430.034 181.257 430.034 181.257V181.257C430.034 181.257 430.034 181.257 431 181C431.966 180.743 431.966 180.743 431.966 180.743C431.966 180.743 431.966 180.743 431.966 180.742C431.966 180.742 431.966 180.742 431.966 180.742C431.966 180.742 431.966 180.741 431.966 180.741C431.966 180.74 431.965 180.739 431.965 180.737C431.964 180.734 431.963 180.729 431.961 180.722C431.957 180.709 431.952 180.691 431.946 180.666C431.932 180.616 431.912 180.544 431.886 180.449C431.834 180.26 431.757 179.983 431.655 179.63C431.453 178.924 431.154 177.912 430.77 176.685L428.861 177.283ZM430.004 181.091L430.35 184.898L432.342 184.717L431.996 180.909L430.004 181.091ZM430.783 189.658L431.475 197.273L433.467 197.092L432.775 189.477L430.783 189.658ZM431.908 202.033L432.6 209.648L434.592 209.467L433.9 201.852L431.908 202.033ZM433.033 214.408L433.725 222.023L435.717 221.842L435.025 214.227L433.033 214.408ZM434.158 226.783L434.504 230.591L436.496 230.409L436.15 226.602L434.158 226.783ZM434.541 230.784L435.887 235.323L437.805 234.754L436.459 230.216L434.541 230.784ZM437.57 240.996L440.262 250.073L442.18 249.504L439.488 240.427L437.57 240.996ZM441.945 255.746L443.291 260.284L445.209 259.716L443.863 255.177L441.945 255.746ZM444.475 260.974C445.83 260.661 447.147 260.37 448.428 260.099L448.014 258.142C446.721 258.416 445.392 258.71 444.025 259.026L444.475 260.974ZM453.371 259.122C456.21 258.604 458.851 258.199 461.314 257.901L461.073 255.915C458.566 256.219 455.885 256.63 453.011 257.155L453.371 259.122ZM466.313 257.42C469.241 257.218 471.883 257.189 474.287 257.312L474.389 255.315C471.895 255.187 469.173 255.218 466.175 255.424L466.313 257.42ZM479.221 257.821C482.08 258.282 484.56 259 486.785 259.924L487.552 258.078C485.176 257.09 482.545 256.331 479.539 255.847L479.221 257.821ZM491.148 262.163C492.271 262.855 493.344 263.607 494.389 264.414L495.611 262.83C494.518 261.987 493.388 261.193 492.196 260.46L491.148 262.163ZM494.389 264.414C495.623 265.365 496.863 266.374 498.122 267.433L499.41 265.902C498.135 264.83 496.873 263.803 495.611 262.83L494.389 264.414ZM502.682 271.381C504.981 273.41 507.391 275.57 509.956 277.796L511.267 276.285C508.709 274.066 506.32 271.924 504.006 269.882L502.682 271.381ZM514.591 281.729C515.813 282.74 517.075 283.76 518.383 284.787L519.617 283.213C518.325 282.199 517.076 281.189 515.865 280.188L514.591 281.729ZM518.383 284.787C519.308 285.513 520.171 286.208 520.991 286.876L522.255 285.326C521.428 284.652 520.555 283.949 519.617 283.213L518.383 284.787ZM524.226 289.542C525.995 291 527.685 292.371 529.555 293.729L530.73 292.111C528.913 290.791 527.262 289.453 525.499 287.999L524.226 289.542ZM533.081 296.121C533.992 296.696 534.961 297.277 536.007 297.87L536.993 296.13C535.974 295.552 535.032 294.988 534.15 294.43L533.081 296.121ZM536.007 297.87C537.202 298.547 538.407 299.125 539.62 299.614L540.368 297.759C539.236 297.302 538.11 296.763 536.993 296.13L536.007 297.87ZM544.391 301.102C547.018 301.7 549.656 301.964 552.28 302.02L552.323 300.02C549.803 299.967 547.304 299.714 544.835 299.152L544.391 301.102ZM557.206 301.91C559.824 301.752 562.427 301.462 564.98 301.164L564.748 299.177C562.196 299.475 559.642 299.759 557.085 299.913L557.206 301.91ZM569.784 300.616C572.398 300.342 574.943 300.143 577.413 300.15L577.419 298.15C574.843 298.143 572.217 298.35 569.575 298.627L569.784 300.616ZM582.11 300.458C584.577 300.802 586.941 301.461 589.19 302.584L590.083 300.794C587.608 299.559 585.029 298.845 582.386 298.477L582.11 300.458ZM593.063 305.093C593.98 305.84 594.879 306.694 595.757 307.669L597.243 306.331C596.299 305.283 595.327 304.358 594.327 303.543L593.063 305.093ZM595.757 307.669C596.461 308.451 597.137 309.317 597.784 310.251L599.428 309.112C598.74 308.119 598.012 307.184 597.243 306.331L595.757 307.669ZM599.951 313.801C601 315.734 601.944 317.801 602.786 319.884L604.64 319.135C603.777 316.998 602.801 314.86 601.709 312.847L599.951 313.801ZM604.262 323.835C605.057 326.13 605.722 328.342 606.26 330.3L608.189 329.769C607.641 327.778 606.964 325.524 606.152 323.181L604.262 323.835ZM607.306 334.396C607.546 335.417 607.724 336.242 607.842 336.81C607.901 337.094 607.945 337.314 607.974 337.461C607.989 337.535 608 337.591 608.007 337.629C608.01 337.647 608.013 337.661 608.014 337.67C608.015 337.675 608.016 337.678 608.016 337.68C608.016 337.681 608.017 337.682 608.017 337.682C608.017 337.682 608.017 337.682 608.017 337.682C608.017 337.683 608.017 337.683 608.017 337.683V337.682C608.017 337.682 608.017 337.682 609 337.5C609.983 337.318 609.983 337.318 609.983 337.317C609.983 337.317 609.983 337.317 609.983 337.317C609.983 337.317 609.983 337.317 609.983 337.317C609.983 337.317 609.983 337.316 609.983 337.316C609.983 337.315 609.983 337.314 609.982 337.313C609.982 337.31 609.981 337.306 609.98 337.3C609.978 337.29 609.975 337.274 609.971 337.254C609.964 337.214 609.952 337.154 609.937 337.077C609.906 336.922 609.861 336.695 609.8 336.403C609.679 335.82 609.497 334.978 609.253 333.938L607.306 334.396ZM495.746 264.288C496.624 263.304 497.51 262.344 498.404 261.409L496.958 260.027C496.048 260.979 495.147 261.956 494.254 262.956L495.746 264.288ZM501.863 257.945C503.778 256.111 505.728 254.383 507.71 252.76L506.443 251.213C504.419 252.869 502.431 254.632 500.48 256.5L501.863 257.945ZM511.57 249.762C513.696 248.199 515.858 246.752 518.055 245.421L517.018 243.711C514.77 245.073 512.558 246.554 510.386 248.151L511.57 249.762ZM522.3 243.016C524.617 241.792 526.972 240.691 529.362 239.715L528.606 237.864C526.154 238.865 523.74 239.993 521.366 241.247L522.3 243.016ZM533.929 238.016C536.394 237.186 538.895 236.484 541.432 235.908L540.989 233.958C538.387 234.548 535.82 235.269 533.291 236.12L533.929 238.016ZM546.216 234.981C548.765 234.57 551.348 234.284 553.964 234.122L553.84 232.126C551.16 232.291 548.512 232.585 545.897 233.007L546.216 234.981ZM558.84 233.965C561.409 233.958 564.008 234.068 566.637 234.295L566.809 232.303C564.123 232.07 561.464 231.958 558.835 231.965L558.84 233.965ZM571.493 234.845C574.031 235.198 576.595 235.659 579.185 236.227L579.613 234.273C576.975 233.695 574.36 233.225 571.769 232.864L571.493 234.845ZM583.941 237.383C585.192 237.717 586.448 238.074 587.71 238.457L588.29 236.543C587.007 236.154 585.729 235.79 584.457 235.451L583.941 237.383ZM587.71 238.457C589.178 238.902 590.548 239.419 591.837 239.994L592.651 238.167C591.288 237.559 589.84 237.013 588.29 236.543L587.71 238.457ZM596.684 242.614C599.251 244.25 601.535 246.1 603.781 248.013L605.078 246.49C602.812 244.561 600.444 242.639 597.759 240.928L596.684 242.614ZM608.092 251.698C610.395 253.624 612.809 255.495 615.562 257.101L616.57 255.373C613.959 253.85 611.643 252.061 609.375 250.164L608.092 251.698ZM620.813 259.617C622.207 260.146 623.687 260.604 625.273 260.974L625.727 259.026C624.229 258.676 622.834 258.245 621.522 257.747L620.813 259.617ZM625.273 260.974C626.35 261.225 627.479 261.433 628.643 261.603L628.932 259.624C627.815 259.461 626.742 259.263 625.727 259.026L625.273 260.974ZM632.877 262.059C635.109 262.224 637.4 262.287 639.645 262.283L639.641 260.283C637.435 260.287 635.196 260.225 633.024 260.064L632.877 262.059ZM643.863 262.199C646.295 262.11 648.59 261.96 650.598 261.796L650.435 259.803C648.451 259.965 646.187 260.113 643.79 260.2L643.863 262.199ZM654.785 261.398C655.827 261.285 656.664 261.183 657.242 261.11C657.53 261.073 657.754 261.043 657.907 261.022C657.983 261.012 658.041 261.004 658.08 260.999C658.1 260.996 658.115 260.994 658.126 260.992C658.131 260.991 658.135 260.991 658.137 260.991C658.139 260.99 658.14 260.99 658.141 260.99C658.141 260.99 658.141 260.99 658.141 260.99C658.142 260.99 658.142 260.99 658.142 260.99H658.142C658.142 260.99 658.142 260.99 658 260C657.858 259.01 657.858 259.01 657.858 259.01H657.858H657.858C657.858 259.01 657.858 259.01 657.858 259.01C657.857 259.01 657.856 259.01 657.855 259.01C657.853 259.011 657.85 259.011 657.845 259.012C657.836 259.013 657.822 259.015 657.804 259.018C657.767 259.023 657.711 259.031 657.638 259.041C657.49 259.061 657.272 259.09 656.989 259.126C656.422 259.198 655.598 259.298 654.569 259.41L654.785 261.398ZM491 482C491.905 482.426 491.905 482.426 491.905 482.426C491.905 482.426 491.905 482.426 491.905 482.426C491.905 482.426 491.905 482.426 491.905 482.425C491.905 482.425 491.906 482.424 491.906 482.423C491.907 482.42 491.909 482.416 491.912 482.411C491.917 482.401 491.924 482.386 491.934 482.365C491.953 482.324 491.982 482.262 492.021 482.181C492.099 482.018 492.214 481.778 492.365 481.467C492.667 480.846 493.11 479.944 493.674 478.826L491.887 477.926C491.319 479.054 490.872 479.964 490.566 480.593C490.414 480.908 490.296 481.152 490.217 481.318C490.177 481.401 490.147 481.465 490.127 481.508C490.116 481.529 490.109 481.546 490.103 481.557C490.101 481.562 490.099 481.566 490.097 481.569C490.097 481.571 490.096 481.572 490.096 481.573C490.096 481.573 490.096 481.573 490.095 481.574C490.095 481.574 490.095 481.574 490.095 481.574C490.095 481.574 490.095 481.574 490.095 481.574C490.095 481.574 490.095 481.574 491 482ZM495.978 474.366C497.104 472.242 498.418 469.835 499.865 467.317L498.131 466.321C496.67 468.861 495.345 471.289 494.211 473.43L495.978 474.366ZM502.423 462.996C503.812 460.72 505.277 458.437 506.781 456.263L505.136 455.125C503.606 457.336 502.12 459.653 500.715 461.954L502.423 462.996ZM509.726 452.227C510.568 451.141 511.411 450.113 512.25 449.161L510.75 447.839C509.878 448.827 509.008 449.888 508.145 451.002L509.726 452.227ZM512.25 449.161C513.098 448.2 513.973 447.301 514.874 446.46L513.509 444.998C512.561 445.883 511.641 446.828 510.75 447.839L512.25 449.161ZM518.5 443.47C520.558 441.976 522.721 440.715 524.969 439.644L524.109 437.839C521.76 438.958 519.49 440.279 517.325 441.852L518.5 443.47ZM529.329 437.829C531.693 436.974 534.13 436.282 536.618 435.709L536.169 433.76C533.617 434.348 531.101 435.061 528.648 435.948L529.329 437.829ZM541.292 434.769C543.794 434.332 546.329 433.982 548.876 433.676L548.638 431.691C546.069 431.999 543.497 432.353 540.948 432.799L541.292 434.769ZM553.656 433.143C556.224 432.872 558.8 432.615 561.337 432.329L561.113 430.341C558.585 430.627 556.03 430.881 553.446 431.154L553.656 433.143ZM566.147 431.732C568.761 431.37 571.331 430.941 573.827 430.391L573.396 428.438C570.967 428.974 568.452 429.394 565.873 429.751L566.147 431.732ZM578.569 429.154C581.119 428.373 583.569 427.41 585.88 426.197L584.951 424.426C582.769 425.572 580.437 426.49 577.983 427.242L578.569 429.154ZM590.097 423.571C592.183 422.038 594.105 420.223 595.828 418.067L594.266 416.818C592.655 418.833 590.861 420.527 588.912 421.96L590.097 423.571ZM598.623 413.951C599.263 412.839 599.861 411.658 600.415 410.404L598.585 409.596C598.059 410.788 597.492 411.906 596.889 412.954L598.623 413.951ZM600.415 410.404C601.021 409.033 601.554 407.576 602.024 406.061L600.113 405.469C599.663 406.922 599.155 408.305 598.585 409.596L600.415 410.404ZM603.437 400.485C604.043 397.529 604.473 394.463 604.773 391.44L602.783 391.242C602.488 394.213 602.067 397.209 601.478 400.084L603.437 400.485ZM605.201 385.757C605.374 382.483 605.419 379.376 605.4 376.649L603.4 376.663C603.419 379.358 603.374 382.424 603.204 385.651L605.201 385.757ZM605.263 370.968C605.204 369.557 605.138 368.422 605.086 367.637C605.06 367.245 605.038 366.941 605.022 366.734C605.014 366.63 605.008 366.551 605.003 366.498C605.001 366.471 604.999 366.45 604.998 366.436C604.998 366.429 604.997 366.424 604.997 366.42C604.997 366.418 604.997 366.417 604.996 366.416C604.996 366.415 604.996 366.415 604.996 366.415C604.996 366.415 604.996 366.415 604.996 366.414C604.996 366.414 604.996 366.414 604.996 366.414C604.996 366.414 604.996 366.414 604 366.5C603.004 366.586 603.004 366.586 603.004 366.586C603.004 366.586 603.004 366.586 603.004 366.586C603.004 366.586 603.004 366.586 603.004 366.586C603.004 366.587 603.004 366.588 603.004 366.59C603.004 366.593 603.005 366.597 603.005 366.603C603.006 366.616 603.008 366.635 603.01 366.66C603.014 366.71 603.02 366.786 603.028 366.887C603.043 367.087 603.065 367.384 603.09 367.769C603.141 368.539 603.206 369.658 603.264 371.051L605.263 370.968ZM113.55 497.91C114.329 499.643 115.297 501.439 116.391 503.211L118.093 502.16C117.037 500.451 116.112 498.732 115.374 497.09L113.55 497.91ZM120.734 509.309C122.051 510.923 123.431 512.425 124.814 513.728L126.186 512.272C124.875 511.037 123.554 509.601 122.283 508.045L120.734 509.309ZM124.814 513.728C125.875 514.727 126.968 515.62 128.088 516.413L129.244 514.781C128.201 514.042 127.18 513.209 126.186 512.272L124.814 513.728ZM132.654 519.052C135.249 520.246 137.947 521.018 140.713 521.468L141.034 519.494C138.424 519.069 135.902 518.345 133.49 517.235L132.654 519.052ZM145.919 521.958C148.646 522.044 151.42 521.892 154.212 521.589L153.996 519.6C151.272 519.896 148.594 520.042 145.982 519.958L145.919 521.958ZM159.324 520.887C162.013 520.451 164.712 519.924 167.393 519.38L166.995 517.42C164.321 517.962 161.653 518.483 159.004 518.913L159.324 520.887ZM172.397 518.359C175.099 517.814 177.767 517.299 180.387 516.89L180.078 514.914C177.414 515.33 174.711 515.852 172.001 516.399L172.397 518.359ZM185.389 516.249C188.148 515.987 190.819 515.908 193.378 516.102L193.529 514.108C190.828 513.903 188.039 513.988 185.2 514.258L185.389 516.249ZM198.253 516.861C200.783 517.483 203.173 518.476 205.398 519.947L206.501 518.279C204.066 516.669 201.461 515.59 198.731 514.918L198.253 516.861ZM209.146 523.059C210.026 523.959 210.876 524.966 211.691 526.088L213.309 524.912C212.439 523.715 211.528 522.634 210.577 521.661L209.146 523.059ZM211.691 526.088C212.313 526.944 212.913 527.875 213.49 528.864L215.217 527.857C214.612 526.819 213.976 525.83 213.309 524.912L211.691 526.088ZM215.429 532.568C216.376 534.567 217.238 536.677 218.013 538.786L219.89 538.096C219.099 535.944 218.214 533.777 217.237 531.712L215.429 532.568ZM219.387 542.781C220.134 545.102 220.768 547.325 221.287 549.287L223.221 548.775C222.694 546.786 222.051 544.529 221.291 542.168L219.387 542.781ZM222.306 553.392C222.544 554.417 222.722 555.244 222.841 555.812C222.9 556.097 222.945 556.317 222.974 556.465C222.989 556.539 223 556.595 223.007 556.632C223.011 556.651 223.013 556.665 223.015 556.674C223.016 556.679 223.017 556.682 223.017 556.684C223.017 556.685 223.017 556.686 223.018 556.686C223.018 556.687 223.018 556.687 223.018 556.687C223.018 556.687 223.018 556.687 223.018 556.687C223.018 556.687 223.018 556.687 224 556.5C224.982 556.313 224.982 556.313 224.982 556.313C224.982 556.313 224.982 556.313 224.982 556.313C224.982 556.313 224.982 556.313 224.982 556.313C224.982 556.312 224.982 556.312 224.982 556.312C224.982 556.311 224.982 556.31 224.982 556.308C224.981 556.306 224.98 556.302 224.979 556.296C224.977 556.286 224.974 556.271 224.97 556.251C224.963 556.21 224.951 556.151 224.936 556.074C224.905 555.92 224.859 555.694 224.798 555.404C224.677 554.822 224.496 553.981 224.254 552.941L222.306 553.392ZM65.5 529C65.9605 529.888 65.9606 529.888 65.9606 529.888C65.9606 529.888 65.9606 529.888 65.9606 529.888C65.9607 529.888 65.9607 529.888 65.9608 529.888C65.961 529.887 65.9612 529.887 65.9615 529.887C65.9621 529.887 65.963 529.886 65.9642 529.886C65.9666 529.884 65.9701 529.883 65.9748 529.88C65.9841 529.875 65.998 529.868 66.0164 529.859C66.0531 529.84 66.1077 529.811 66.1794 529.774C66.3227 529.699 66.5347 529.588 66.8093 529.444C67.3586 529.157 68.1589 528.736 69.1638 528.203L68.227 526.436C67.2251 526.967 66.4277 527.386 65.881 527.673C65.6076 527.816 65.397 527.926 65.2548 528C65.1837 528.037 65.1297 528.065 65.0936 528.084C65.0755 528.094 65.0619 528.101 65.0529 528.105C65.0483 528.108 65.045 528.109 65.0427 528.111C65.0416 528.111 65.0408 528.112 65.0402 528.112C65.0399 528.112 65.0397 528.112 65.0396 528.112C65.0396 528.112 65.0395 528.112 65.0395 528.112C65.0395 528.112 65.0395 528.112 65.0395 528.112C65.0395 528.112 65.0395 528.112 65.5 529ZM73.1407 526.078C75.0229 525.064 77.1846 523.89 79.5126 522.606L78.5469 520.855C76.2256 522.135 74.0698 523.306 72.1926 524.317L73.1407 526.078ZM83.4647 520.41C85.5132 519.262 87.6335 518.058 89.7616 516.828L88.7608 515.096C86.6415 516.321 84.5289 517.521 82.4869 518.665L83.4647 520.41ZM93.6743 514.54C95.7936 513.285 97.8822 512.021 99.8751 510.778L98.8166 509.081C96.8392 510.315 94.7641 511.57 92.6554 512.819L93.6743 514.54ZM103.702 508.336C105.941 506.871 107.981 505.46 109.701 504.159L108.495 502.563C106.823 503.828 104.822 505.212 102.606 506.663L103.702 508.336ZM113.249 501.184C113.905 500.544 114.452 499.925 114.834 499.341C115.199 498.783 115.505 498.122 115.46 497.434L113.464 497.566C113.466 497.6 113.448 497.807 113.161 498.246C112.891 498.658 112.458 499.162 111.853 499.751L113.249 501.184ZM115.421 497.781L116.557 493.91L114.638 493.347L113.502 497.219L115.421 497.781ZM117.977 489.07L120.249 481.326L118.33 480.763L116.058 488.507L117.977 489.07ZM121.669 476.487L123.94 468.743L122.021 468.18L119.749 475.924L121.669 476.487ZM125.36 463.903L127.632 456.16L125.713 455.597L123.441 463.34L125.36 463.903ZM129.052 451.32L131.323 443.576L129.404 443.013L127.133 450.757L129.052 451.32ZM132.743 438.737L135.015 430.993L133.096 430.43L130.824 438.174L132.743 438.737ZM136.435 426.153L137.571 422.281L135.651 421.719L134.516 425.59L136.435 426.153ZM1 533.5C1.3773 534.426 1.37729 534.426 1.3773 534.426C1.37731 534.426 1.37732 534.426 1.37733 534.426C1.37737 534.426 1.37743 534.426 1.37752 534.426C1.37769 534.426 1.37795 534.426 1.37832 534.426C1.37904 534.425 1.38015 534.425 1.38165 534.424C1.38464 534.423 1.38916 534.421 1.3952 534.419C1.40727 534.414 1.42539 534.407 1.44942 534.397C1.49748 534.377 1.56915 534.348 1.66323 534.31C1.8514 534.234 2.1292 534.122 2.48699 533.979C3.20261 533.691 4.23813 533.279 5.51653 532.776L4.78457 530.915C3.50151 531.419 2.46176 531.834 1.74246 532.122C1.3828 532.267 1.10324 532.379 0.913405 532.456C0.818487 532.494 0.745999 532.524 0.697148 532.544C0.672722 532.554 0.654205 532.561 0.641748 532.566C0.635519 532.569 0.630805 532.571 0.627625 532.572C0.626034 532.573 0.624828 532.573 0.624006 532.573C0.623596 532.574 0.623282 532.574 0.623065 532.574C0.622956 532.574 0.622871 532.574 0.622811 532.574C0.622781 532.574 0.622754 532.574 0.622739 532.574C0.622718 532.574 0.622703 532.574 1 533.5ZM10.7345 530.754C13.2807 529.783 16.1599 528.706 19.128 527.638L18.4508 525.756C15.468 526.829 12.5765 527.911 10.0214 528.886L10.7345 530.754ZM24.4034 525.787C27.378 524.773 30.2919 523.837 32.9064 523.088L32.3559 521.166C29.6988 521.926 26.7514 522.874 23.7583 523.894L24.4034 525.787ZM38.2555 521.754C39.2503 521.559 40.1037 521.435 40.7954 521.388C41.5088 521.341 41.964 521.382 42.21 521.457L42.79 519.543C42.1933 519.362 41.4477 519.34 40.662 519.393C39.8547 519.447 38.9108 519.587 37.8699 519.792L38.2555 521.754ZM42.21 521.457C43.0968 521.726 44.3158 522.136 45.7419 522.638L46.4056 520.751C44.9718 520.247 43.7197 519.825 42.79 519.543L42.21 521.457ZM50.166 524.237C52.5029 525.098 54.9759 526.03 57.225 526.886L57.9363 525.017C55.6834 524.159 53.2034 523.225 50.8577 522.36L50.166 524.237ZM61.6231 528.57C62.6841 528.979 63.5627 529.32 64.1759 529.558C64.4825 529.677 64.7227 529.77 64.8862 529.834C64.968 529.866 65.0305 529.89 65.0727 529.907C65.0937 529.915 65.1096 529.921 65.1203 529.925C65.1256 529.927 65.1296 529.929 65.1323 529.93C65.1336 529.93 65.1346 529.931 65.1353 529.931C65.1356 529.931 65.1359 529.931 65.136 529.931C65.1361 529.931 65.1362 529.931 65.1362 529.931C65.1362 529.932 65.1363 529.932 65.1363 529.932C65.1363 529.932 65.1363 529.932 65.5 529C65.8637 528.068 65.8637 528.068 65.8637 528.068C65.8637 528.068 65.8637 528.068 65.8637 528.068C65.8636 528.068 65.8635 528.068 65.8634 528.068C65.8633 528.068 65.863 528.068 65.8627 528.068C65.862 528.068 65.8609 528.067 65.8596 528.067C65.8568 528.066 65.8528 528.064 65.8474 528.062C65.8366 528.058 65.8205 528.052 65.7993 528.043C65.7569 528.027 65.6941 528.002 65.612 527.97C65.4479 527.906 65.207 527.813 64.8998 527.693C64.2853 527.455 63.4051 527.114 62.3423 526.704L61.6231 528.57ZM65.5 529C64.784 528.302 64.784 528.302 64.7839 528.302C64.7839 528.302 64.7839 528.302 64.7838 528.302C64.7838 528.302 64.7837 528.302 64.7836 528.302C64.7834 528.302 64.7831 528.303 64.7828 528.303C64.7822 528.304 64.7813 528.305 64.7802 528.306C64.7779 528.308 64.7747 528.312 64.7704 528.316C64.762 528.325 64.7497 528.337 64.7336 528.354C64.7015 528.387 64.6542 528.436 64.5926 528.501C64.4694 528.63 64.2889 528.82 64.0575 529.068C63.5948 529.563 62.9283 530.288 62.1091 531.212L63.6051 532.539C64.412 531.63 65.0669 530.917 65.5191 530.433C65.7452 530.191 65.9206 530.006 66.0389 529.882C66.098 529.82 66.1429 529.774 66.1726 529.743C66.1875 529.727 66.1987 529.716 66.2059 529.708C66.2096 529.705 66.2122 529.702 66.2139 529.7C66.2147 529.699 66.2153 529.699 66.2157 529.698C66.2159 529.698 66.216 529.698 66.216 529.698C66.2161 529.698 66.2161 529.698 66.2161 529.698H66.216C66.216 529.698 66.216 529.698 65.5 529ZM58.8869 534.974C57.3949 536.777 55.7235 538.884 54.0023 541.213L55.6109 542.402C57.3072 540.106 58.9555 538.028 60.4277 536.249L58.8869 534.974ZM51.1344 545.253C49.6857 547.381 48.2504 549.635 46.9041 551.97L48.6367 552.969C49.9544 550.684 51.3625 548.471 52.7877 546.378L51.1344 545.253ZM44.5434 556.349C43.3391 558.756 42.2666 561.22 41.4034 563.693L43.2917 564.352C44.1219 561.974 45.1586 559.589 46.332 557.244L44.5434 556.349ZM40.0054 568.52C39.3892 571.241 39.0854 573.951 39.2076 576.583L41.2054 576.49C41.0932 574.073 41.3709 571.546 41.956 568.962L40.0054 568.52ZM40.035 581.656C40.421 582.972 40.9456 584.251 41.6242 585.483L43.3758 584.517C42.7701 583.418 42.3006 582.275 41.9541 581.093L40.035 581.656ZM41.6242 585.483C42.4803 587.036 43.5078 588.316 44.6495 589.399L46.0262 587.949C45.0243 586.998 44.1266 585.88 43.3758 584.517L41.6242 585.483ZM49.6534 592.853C51.0739 593.595 52.5436 594.24 53.9555 594.871C55.3798 595.507 56.7503 596.13 58.0362 596.849L59.0121 595.104C57.6385 594.336 56.1923 593.679 54.7711 593.044C53.3377 592.404 51.9333 591.787 50.5798 591.08L49.6534 592.853ZM62.3455 600.192C63.2302 601.201 63.9882 602.398 64.5702 603.868L66.4298 603.132C65.7626 601.447 64.8836 600.053 63.8491 598.873L62.3455 600.192ZM64.5702 603.868C64.943 604.81 65.2269 605.857 65.4349 606.976L67.4012 606.61C67.1752 605.394 66.86 604.219 66.4298 603.132L64.5702 603.868ZM65.8723 611.087C65.9657 613.373 65.8516 615.699 65.6545 617.796L67.6457 617.983C67.8484 615.826 67.9688 613.406 67.8707 611.005L65.8723 611.087ZM65.1288 621.982C64.9707 622.993 64.8188 623.822 64.7067 624.396C64.6507 624.682 64.6047 624.906 64.5729 625.056C64.557 625.131 64.5447 625.188 64.5364 625.226C64.5323 625.245 64.5292 625.259 64.5272 625.268C64.5262 625.272 64.5255 625.276 64.525 625.278C64.5248 625.279 64.5247 625.279 64.5246 625.28C64.5245 625.28 64.5245 625.28 64.5245 625.28C64.5245 625.28 64.5245 625.28 64.5245 625.28C64.5245 625.28 64.5245 625.28 64.5245 625.28C64.5245 625.28 64.5245 625.28 65.5 625.5C66.4755 625.72 66.4755 625.72 66.4755 625.72C66.4755 625.72 66.4755 625.72 66.4755 625.72C66.4755 625.72 66.4756 625.72 66.4756 625.72C66.4757 625.719 66.4758 625.719 66.4759 625.718C66.4761 625.717 66.4763 625.716 66.4767 625.715C66.4774 625.712 66.4783 625.707 66.4796 625.702C66.4821 625.69 66.4857 625.674 66.4903 625.653C66.4995 625.611 66.5128 625.55 66.5297 625.47C66.5635 625.31 66.6116 625.076 66.6697 624.779C66.7859 624.184 66.9423 623.33 67.1048 622.291L65.1288 621.982ZM143.878 400.781L144.961 397.089L143.042 396.526L141.959 400.219L143.878 400.781ZM146.315 392.474L148.482 385.089L146.562 384.526L144.396 391.911L146.315 392.474ZM149.836 380.474L152.002 373.089L150.083 372.526L147.916 379.911L149.836 380.474ZM153.356 368.474L155.522 361.089L153.603 360.526L151.437 367.911L153.356 368.474ZM156.876 356.474L157.96 352.781L156.04 352.219L154.957 355.911L156.876 356.474ZM158 352.469L157.884 348.738L155.885 348.8L156 352.531L158 352.469ZM157.74 344.075L157.509 336.613L155.51 336.675L155.741 344.137L157.74 344.075ZM157.365 331.95L157.134 324.488L155.135 324.55L155.366 332.012L157.365 331.95ZM156.99 319.825L156.759 312.363L154.76 312.425L154.991 319.887L156.99 319.825ZM156.615 307.7L156.5 303.969L154.5 304.031L154.616 307.762L156.615 307.7ZM155.5 304C156.268 304.641 156.268 304.641 156.268 304.641C156.268 304.641 156.268 304.641 156.268 304.641C156.268 304.641 156.268 304.641 156.268 304.64C156.268 304.64 156.269 304.639 156.27 304.638C156.272 304.636 156.274 304.633 156.278 304.629C156.285 304.62 156.296 304.607 156.311 304.589C156.341 304.554 156.385 304.501 156.444 304.432C156.562 304.293 156.737 304.088 156.966 303.824C157.423 303.295 158.092 302.531 158.94 301.592L157.455 300.252C156.597 301.203 155.918 301.977 155.453 302.515C155.22 302.785 155.041 302.994 154.919 303.138C154.859 303.209 154.812 303.264 154.781 303.301C154.765 303.32 154.753 303.334 154.745 303.344C154.741 303.349 154.738 303.352 154.736 303.355C154.735 303.356 154.734 303.357 154.733 303.358C154.733 303.358 154.733 303.358 154.733 303.359C154.733 303.359 154.733 303.359 154.732 303.359C154.732 303.359 154.732 303.359 154.732 303.359C154.732 303.359 154.732 303.359 155.5 304ZM162.402 297.869C164.088 296.108 166.046 294.138 168.18 292.127L166.808 290.672C164.645 292.711 162.662 294.705 160.957 296.486L162.402 297.869ZM171.941 288.713C173.977 286.938 176.105 285.208 178.257 283.638L177.078 282.022C174.87 283.634 172.697 285.401 170.627 287.205L171.941 288.713ZM182.438 280.826C183.617 280.106 184.787 279.458 185.937 278.9L185.063 277.1C183.847 277.691 182.621 278.371 181.395 279.119L182.438 280.826ZM185.937 278.9C187.037 278.365 188.18 277.901 189.36 277.499L188.715 275.606C187.464 276.033 186.244 276.527 185.063 277.1L185.937 278.9ZM193.853 276.278C196.24 275.774 198.733 275.448 201.301 275.232L201.134 273.239C198.508 273.46 195.929 273.796 193.44 274.321L193.853 276.278ZM206.032 274.948C208.543 274.847 211.09 274.809 213.653 274.775L213.626 272.775C211.066 272.809 208.493 272.847 205.951 272.949L206.032 274.948ZM218.441 274.699C221.028 274.645 223.607 274.554 226.137 274.364L225.988 272.37C223.508 272.556 220.969 272.645 218.398 272.7L218.441 274.699ZM230.956 273.857C233.585 273.488 236.144 272.956 238.583 272.179L237.976 270.273C235.669 271.008 233.224 271.519 230.678 271.876L230.956 273.857ZM243.156 270.341C244.338 269.752 245.479 269.083 246.572 268.32L245.428 266.68C244.42 267.383 243.364 268.003 242.265 268.55L243.156 270.341ZM246.572 268.32C247.697 267.535 248.721 266.668 249.651 265.735L248.235 264.323C247.385 265.175 246.452 265.966 245.428 266.68L246.572 268.32ZM252.796 261.848C254.275 259.599 255.392 257.165 256.233 254.71L254.34 254.062C253.544 256.39 252.495 258.666 251.125 260.749L252.796 261.848ZM257.54 249.965C258.132 247.217 258.444 244.554 258.595 242.199L256.6 242.071C256.453 244.349 256.152 246.911 255.585 249.544L257.54 249.965ZM258.71 237.318C258.69 236.115 258.636 235.138 258.588 234.459C258.563 234.12 258.54 233.854 258.523 233.672C258.514 233.581 258.507 233.511 258.502 233.463C258.499 233.439 258.497 233.42 258.496 233.407C258.495 233.4 258.495 233.395 258.494 233.392C258.494 233.39 258.494 233.388 258.494 233.387C258.494 233.387 258.493 233.386 258.493 233.386C258.493 233.386 258.493 233.385 258.493 233.385C258.493 233.385 258.493 233.385 258.493 233.385C258.493 233.385 258.493 233.385 257.5 233.5C256.507 233.615 256.507 233.615 256.507 233.615C256.507 233.615 256.507 233.615 256.507 233.615C256.507 233.615 256.507 233.615 256.507 233.615C256.507 233.615 256.507 233.615 256.507 233.615C256.507 233.615 256.507 233.616 256.507 233.617C256.507 233.619 256.507 233.622 256.508 233.627C256.509 233.637 256.511 233.652 256.513 233.673C256.517 233.714 256.524 233.777 256.532 233.861C256.548 234.029 256.57 234.279 256.593 234.602C256.639 235.25 256.691 236.19 256.711 237.352L258.71 237.318ZM258.456 233.795L259.738 229.641L257.827 229.051L256.544 233.205L258.456 233.795ZM261.34 224.449L263.904 216.141L261.993 215.551L259.429 223.859L261.34 224.449ZM265.507 210.949L268.071 202.641L266.16 202.051L263.596 210.359L265.507 210.949ZM269.673 197.449L270.956 193.295L269.044 192.705L267.762 196.859L269.673 197.449ZM270 193C270.818 193.575 270.818 193.575 270.818 193.575C270.818 193.575 270.818 193.575 270.818 193.575C270.818 193.575 270.819 193.574 270.819 193.574C270.819 193.574 270.82 193.573 270.82 193.572C270.822 193.57 270.824 193.567 270.827 193.563C270.833 193.554 270.842 193.542 270.853 193.525C270.877 193.491 270.913 193.441 270.961 193.374C271.056 193.241 271.197 193.043 271.381 192.788C271.749 192.279 272.289 191.541 272.971 190.629L271.37 189.43C270.68 190.352 270.134 191.099 269.76 191.617C269.573 191.875 269.429 192.077 269.332 192.214C269.283 192.282 269.246 192.335 269.22 192.37C269.208 192.388 269.198 192.402 269.192 192.411C269.189 192.415 269.186 192.419 269.184 192.421C269.184 192.423 269.183 192.423 269.182 192.424C269.182 192.424 269.182 192.425 269.182 192.425C269.182 192.425 269.182 192.425 269.182 192.425C269.182 192.425 269.182 192.425 269.182 192.425C269.182 192.425 269.182 192.425 270 193ZM275.75 187.003C277.102 185.281 278.671 183.339 280.381 181.327L278.858 180.032C277.127 182.067 275.541 184.029 274.177 185.768L275.75 187.003ZM283.391 177.889C285.017 176.088 286.717 174.3 288.439 172.626L287.046 171.192C285.286 172.902 283.555 174.723 281.906 176.549L283.391 177.889ZM291.784 169.557C292.73 168.745 293.67 167.989 294.595 167.304L293.405 165.696C292.435 166.414 291.457 167.202 290.481 168.04L291.784 169.557ZM294.595 167.304C295.633 166.536 296.693 165.869 297.773 165.287L296.824 163.527C295.664 164.152 294.522 164.869 293.405 165.696L294.595 167.304ZM302.095 163.408C304.513 162.576 306.999 162.043 309.515 161.655L309.21 159.678C306.621 160.078 304.011 160.634 301.445 161.516L302.095 163.408ZM314.312 161.051C316.923 160.775 319.567 160.543 322.112 160.182L321.831 158.202C319.333 158.557 316.763 158.781 314.102 159.062L314.312 161.051ZM327.012 159.249C329.64 158.585 332.162 157.619 334.481 156.11L333.391 154.434C331.303 155.792 328.999 156.684 326.522 157.31L327.012 159.249ZM338.382 152.792C339.258 151.832 340.081 150.75 340.847 149.532L339.153 148.468C338.448 149.59 337.697 150.576 336.905 151.444L338.382 152.792ZM340.847 149.532C341.769 148.063 342.54 146.732 343.196 145.435L341.412 144.532C340.791 145.759 340.054 147.034 339.153 148.468L340.847 149.532ZM345.391 139.892C345.8 138.497 346.149 136.999 346.481 135.297L344.519 134.913C344.194 136.575 343.858 138.01 343.471 139.329L345.391 139.892ZM142.918 400.5C141.972 400.823 141.972 400.823 141.972 400.823C141.972 400.823 141.972 400.823 141.972 400.823C141.972 400.824 141.972 400.824 141.972 400.824C141.972 400.824 141.972 400.824 141.973 400.825C141.973 400.826 141.973 400.827 141.974 400.828C141.975 400.831 141.976 400.835 141.978 400.84C141.981 400.85 141.986 400.864 141.993 400.884C142.006 400.922 142.026 400.979 142.052 401.052C142.104 401.199 142.181 401.415 142.282 401.691C142.484 402.243 142.782 403.039 143.17 404.02L145.03 403.284C144.649 402.321 144.357 401.542 144.16 401.004C144.062 400.735 143.987 400.527 143.938 400.386C143.913 400.316 143.895 400.263 143.882 400.228C143.876 400.21 143.872 400.197 143.869 400.188C143.867 400.184 143.866 400.181 143.866 400.179C143.865 400.178 143.865 400.177 143.865 400.177C143.865 400.177 143.865 400.177 143.865 400.177C143.865 400.177 143.865 400.177 143.865 400.177V400.177C143.865 400.177 143.865 400.177 142.918 400.5ZM144.807 407.94C145.628 409.807 146.612 411.911 147.741 414.085L149.516 413.163C148.411 411.035 147.445 408.97 146.638 407.135L144.807 407.94ZM149.798 417.82C150.948 419.784 152.208 421.733 153.564 423.543L155.165 422.344C153.863 420.607 152.645 418.724 151.524 416.809L149.798 417.82ZM156.328 426.866C157.143 427.737 157.988 428.546 158.862 429.27L160.138 427.73C159.339 427.068 158.555 426.319 157.789 425.5L156.328 426.866ZM158.862 429.27C159.767 430.02 160.699 430.655 161.644 431.205L162.65 429.477C161.79 428.976 160.95 428.403 160.138 427.73L158.862 429.27ZM165.412 433.008C166.473 433.43 167.528 433.798 168.547 434.148C169.573 434.5 170.554 434.832 171.5 435.191L172.211 433.322C171.227 432.948 170.207 432.603 169.197 432.256C168.179 431.907 167.163 431.553 166.152 431.15L165.412 433.008ZM174.972 436.832C175.818 437.352 176.587 437.954 177.27 438.683L178.73 437.317C177.908 436.437 176.993 435.727 176.019 435.128L174.972 436.832ZM137.571 422.281L138.541 418.974L136.622 418.411L135.651 421.719L137.571 422.281ZM139.754 414.839L141.695 408.224L139.776 407.661L137.835 414.276L139.754 414.839ZM142.908 404.089L143.878 400.781L141.959 400.219L140.988 403.526L142.908 404.089ZM68.5 428.5C68.2835 429.476 68.2835 429.476 68.2835 429.476C68.2836 429.476 68.2836 429.476 68.2837 429.476C68.2838 429.476 68.2839 429.476 68.284 429.476C68.2843 429.476 68.2847 429.477 68.2852 429.477C68.2862 429.477 68.2877 429.477 68.2896 429.478C68.2934 429.478 68.299 429.48 68.3064 429.481C68.321 429.485 68.3427 429.489 68.3711 429.495C68.4279 429.508 68.5118 429.526 68.6213 429.55C68.8404 429.597 69.1619 429.665 69.5737 429.75C70.3974 429.919 71.5828 430.157 73.0333 430.427L73.3998 428.461C71.9633 428.193 70.7905 427.958 69.9776 427.791C69.5712 427.707 69.2548 427.64 69.0406 427.594C68.9335 427.571 68.852 427.553 68.7974 427.541C68.7702 427.536 68.7497 427.531 68.7361 427.528C68.7294 427.527 68.7243 427.525 68.721 427.525C68.7194 427.524 68.7182 427.524 68.7175 427.524C68.7171 427.524 68.7168 427.524 68.7167 427.524C68.7166 427.524 68.7165 427.524 68.7165 427.524C68.7165 427.524 68.7165 427.524 68.7165 427.524C68.7165 427.524 68.7165 427.524 68.5 428.5ZM78.9875 431.446C81.9432 431.906 85.2619 432.352 88.5976 432.66L88.7817 430.669C85.4982 430.365 82.2222 429.926 79.2952 429.47L78.9875 431.446ZM94.6614 433.044C96.3566 433.094 98.0053 433.085 99.5556 432.998L99.4444 431.002C97.9628 431.084 96.3722 431.093 94.7198 431.045L94.6614 433.044ZM99.5556 432.998C100.936 432.922 102.265 432.832 103.551 432.727L103.388 430.733C102.121 430.837 100.81 430.926 99.4444 431.002L99.5556 432.998ZM108.542 432.213C111.326 431.859 113.934 431.404 116.473 430.818L116.023 428.869C113.557 429.439 111.016 429.882 108.29 430.229L108.542 432.213ZM121.342 429.505C123.832 428.737 126.315 427.82 128.9 426.727L128.121 424.885C125.591 425.955 123.17 426.848 120.752 427.594L121.342 429.505ZM133.473 424.664C134.638 424.108 135.832 423.518 137.065 422.891L136.157 421.109C134.939 421.729 133.76 422.311 132.613 422.858L133.473 424.664ZM346.43 135.473L347.814 131.975L345.955 131.239L344.57 134.737L346.43 135.473ZM349.545 127.603L352.314 120.607L350.455 119.871L347.686 126.867L349.545 127.603ZM354.045 116.234L356.814 109.238L354.955 108.502L352.186 115.498L354.045 116.234ZM358.545 104.866L359.93 101.368L358.07 100.632L356.686 104.13L358.545 104.866ZM359.995 101.1L360.418 96.9081L358.428 96.7073L358.005 100.9L359.995 101.1ZM360.947 91.6677L361.793 83.2831L359.803 83.0823L358.957 91.4669L360.947 91.6677ZM362.322 78.0427L363.168 69.6581L361.178 69.4573L360.332 77.8419L362.322 78.0427ZM363.697 64.4177L364.543 56.0331L362.553 55.8323L361.707 64.2169L363.697 64.4177ZM365.072 50.7927L365.495 46.6004L363.505 46.3996L363.082 50.5919L365.072 50.7927ZM364.5 46.5C365.273 47.1348 365.273 47.1348 365.273 47.1348C365.273 47.1348 365.273 47.1348 365.273 47.1348C365.273 47.1348 365.273 47.1347 365.273 47.1346C365.273 47.1345 365.273 47.1342 365.273 47.1338C365.274 47.1331 365.275 47.132 365.276 47.1304C365.279 47.1273 365.283 47.1225 365.288 47.1161C365.299 47.1032 365.315 47.0839 365.336 47.0583C365.378 47.0072 365.441 46.9313 365.523 46.8328C365.688 46.6358 365.929 46.3486 366.234 45.9899C366.845 45.2723 367.711 44.2691 368.732 43.1279L367.242 41.7942C366.207 42.9502 365.33 43.9664 364.711 44.694C364.401 45.0579 364.156 45.3498 363.988 45.5511C363.904 45.6518 363.839 45.7299 363.795 45.783C363.773 45.8096 363.756 45.8299 363.745 45.8437C363.739 45.8506 363.735 45.8559 363.732 45.8595C363.731 45.8613 363.729 45.8626 363.729 45.8636C363.728 45.8641 363.728 45.8645 363.728 45.8647C363.728 45.8649 363.728 45.865 363.727 45.8651C363.727 45.8651 363.727 45.8652 363.727 45.8652C363.727 45.8652 363.727 45.8652 364.5 46.5ZM373.271 38.313C374.58 37.0089 375.905 35.7758 377.132 34.775L375.868 33.225C374.571 34.2829 373.195 35.566 371.86 36.896L373.271 38.313ZM377.132 34.775C378.221 33.8873 379.347 33.1308 380.507 32.4886L379.537 30.7391C378.275 31.4382 377.05 32.2613 375.868 33.225L377.132 34.775ZM385.204 30.5199C387.802 29.7372 390.529 29.3587 393.34 29.2448L393.259 27.2464C390.324 27.3653 387.424 27.7624 384.627 28.605L385.204 30.5199ZM398.561 29.2994C401.342 29.4493 404.154 29.7624 406.964 30.1064L407.207 28.1213C404.388 27.7761 401.52 27.456 398.669 27.3023L398.561 29.2994ZM412.25 30.7582C415.168 31.1023 418.054 31.3856 420.828 31.4406L420.867 29.441C418.193 29.388 415.385 29.1141 412.484 28.7719L412.25 30.7582ZM426.278 31.1894C429.294 30.8086 432.14 29.9666 434.689 28.3828L433.633 26.6841C431.389 28.0788 428.837 28.8505 426.027 29.2051L426.278 31.1894ZM438.913 24.6827C439.812 23.6023 440.637 22.3699 441.383 20.9699L439.617 20.0301C438.931 21.3189 438.181 22.4359 437.376 23.4031L438.913 24.6827ZM441.383 20.9699C441.868 20.0578 442.31 19.0627 442.711 18.0247L440.845 17.3042C440.466 18.2852 440.057 19.2043 439.617 20.0301L441.383 20.9699ZM443.963 14.2487C444.563 12.1508 445.041 10.0197 445.413 8.10565L443.449 7.72497C443.086 9.59946 442.62 11.6712 442.04 13.698L443.963 14.2487ZM446.08 4.23278C446.223 3.28578 446.326 2.50626 446.394 1.9623C446.428 1.69028 446.453 1.47704 446.47 1.33108C446.478 1.25809 446.484 1.20192 446.488 1.16362C446.49 1.14447 446.492 1.12979 446.493 1.1197C446.493 1.11466 446.494 1.11077 446.494 1.10805C446.494 1.10668 446.494 1.10561 446.495 1.10483C446.495 1.10445 446.495 1.10413 446.495 1.10389C446.495 1.10377 446.495 1.10366 446.495 1.10358C446.495 1.10354 446.495 1.10349 446.495 1.10347C446.495 1.10342 446.495 1.10338 445.5 1C444.505 0.896616 444.505 0.896585 444.505 0.896559C444.505 0.896556 444.505 0.896535 444.505 0.89653C444.505 0.896519 444.505 0.896527 444.505 0.896554C444.505 0.896607 444.505 0.896733 444.505 0.896932C444.505 0.897331 444.505 0.898022 444.505 0.899003C444.505 0.900966 444.505 0.904089 444.504 0.908358C444.503 0.916894 444.502 0.930008 444.5 0.947568C444.496 0.982687 444.49 1.03558 444.482 1.1052C444.467 1.24444 444.442 1.45052 444.409 1.71497C444.344 2.24397 444.242 3.00605 444.102 3.93361L446.08 4.23278Z" fill="black" fill-opacity="0.21"/>
</svg>
