<svg fill="none" xmlns="http://www.w3.org/2000/svg">
<path d="M1920 149V435H0V149V19.0002C63.2489 28.8631 99.3372 42.3816 153.5 76.5003C179.641 92.9669 187.321 113.511 216 125C288.131 153.897 323.8 38.0478 400.5 50.5002C422.139 54.0134 432.124 66.079 454 67.5003C507.89 71.0013 516.634 93.6533 570.5 97.5001C622.15 101.189 626.206 55.4151 673.5 76.5003C720.118 97.2839 759.773 125.421 802.5 97.5003C819.645 86.2964 846.474 77.3992 876.5 76.5003C926.481 75.004 927.984 125.853 995 125C1044.7 124.368 1075.06 113.697 1116 85.5003C1156.94 57.3037 1222.03 113.692 1290.5 108C1393.8 99.4141 1433.26 -18.7539 1534.5 3.50025C1593.29 16.422 1607.03 69.3205 1665 85.5003C1737.72 105.797 1794.31 26.1669 1857.5 67.5003C1891.07 89.4573 1907.5 110.889 1920 149Z" fill="#F4F6F8"/>
</svg>
