<svg width="24" height="24" viewBox="0 0 24 24" fill="none" xmlns="http://www.w3.org/2000/svg">
<g clip-path="url(#clip0_6_164)">
<path d="M23.4841 9.77194L23.4507 9.68658L20.2169 1.24699C20.1511 1.08158 20.0346 0.941258 19.8841 0.846165C19.7335 0.752686 19.5579 0.707664 19.3809 0.717177C19.2039 0.72669 19.0341 0.79028 18.8944 0.89936C18.7563 1.01157 18.6561 1.16362 18.6074 1.33482L16.4239 8.01524H7.58227L5.39877 1.33482C5.35141 1.16269 5.25098 1.00988 5.11176 0.898123C4.97206 0.789042 4.80226 0.725453 4.62528 0.71594C4.44829 0.706427 4.27265 0.751449 4.12207 0.844927C3.97192 0.940405 3.85552 1.0806 3.78928 1.24575L0.549285 9.68163L0.51712 9.76699C0.0515974 10.9833 -0.0058637 12.318 0.3534 13.5699C0.712664 14.8217 1.46918 15.9228 2.50887 16.7072L2.52001 16.7159L2.5497 16.7369L7.47588 20.426L9.913 22.2705L11.3975 23.3913C11.5712 23.5232 11.7832 23.5945 12.0012 23.5945C12.2193 23.5945 12.4313 23.5232 12.605 23.3913L14.0895 22.2705L16.5266 20.426L21.4825 16.7146L21.4949 16.7047C22.5322 15.9202 23.287 14.8202 23.6457 13.5701C24.0044 12.3199 23.9477 10.9871 23.4841 9.77194Z" fill="#2C3E50"/>
</g>
<defs>
<clipPath id="clip0_6_164">
<rect width="24" height="23.0103" fill="white" transform="translate(0 0.650696)"/>
</clipPath>
</defs>
</svg>
