<svg width="24" height="25" viewBox="0 0 24 25" fill="none" xmlns="http://www.w3.org/2000/svg">
<g clip-path="url(#clip0_6_167)">
<path fill-rule="evenodd" clip-rule="evenodd" d="M12.9747 10.9263V10.9633H12.9509C12.9587 10.9511 12.9667 10.9388 12.9747 10.9263Z" fill="#2C3E50"/>
<path fill-rule="evenodd" clip-rule="evenodd" d="M0.275314 1.94661C0.275314 1.00664 1.05663 0.244186 2.02047 0.244186H22.1459C23.1097 0.244186 23.8911 1.00664 23.8911 1.94661V22.3074C23.8911 23.2477 23.1097 24.0098 22.1459 24.0098H2.02047C1.05663 24.0098 0.275314 23.2477 0.275314 22.3074V1.94661ZM7.43399 9.40697V20.1385H3.86704V9.40697H7.43399ZM7.66857 6.08786C7.66857 7.1177 6.89436 7.94176 5.6505 7.94176H5.62725C4.43022 7.94176 3.65618 7.1177 3.65618 6.08786C3.65618 5.03485 4.45395 4.23365 5.67409 4.23365C6.89437 4.23365 7.64539 5.03485 7.66857 6.08786ZM12.9746 20.1385H9.4077C9.4077 20.1385 9.4546 10.4139 9.40779 9.40697H12.9747V10.9263C13.4487 10.1951 14.2971 9.15514 16.1893 9.15514C18.536 9.15514 20.2958 10.6889 20.2958 13.9852V20.1385H16.7292V14.3974C16.7292 12.9547 16.2128 11.9706 14.9221 11.9706C13.9368 11.9706 13.3498 12.6343 13.092 13.2751C12.9978 13.5044 12.9746 13.8248 12.9746 14.1455V20.1385Z" fill="#2C3E50"/>
</g>
<defs>
<clipPath id="clip0_6_167">
<rect width="24" height="24.3117" fill="white"/>
</clipPath>
</defs>
</svg>
