<svg width="24" height="21" viewBox="0 0 24 21" fill="none" xmlns="http://www.w3.org/2000/svg">
<g clip-path="url(#clip0_6_159)">
<path d="M21.479 5.24843C21.4935 5.45843 21.4935 5.66843 21.4935 5.88037C21.4935 12.3381 16.5774 19.7859 7.58806 19.7859V19.782C4.93258 19.7859 2.33226 19.0252 0.0967712 17.591C0.4829 17.6375 0.870965 17.6607 1.26 17.6617C3.46064 17.6636 5.59838 16.9252 7.32967 15.5655C5.23838 15.5259 3.40451 14.1623 2.76387 12.1717C3.49645 12.3129 4.25129 12.2839 4.97032 12.0875C2.69032 11.6268 1.05 9.6236 1.05 7.29714C1.05 7.27585 1.05 7.25553 1.05 7.23521C1.72935 7.6136 2.49 7.8236 3.26806 7.84682C1.12064 6.41166 0.458707 3.55489 1.75548 1.32134C4.23677 4.37456 7.89774 6.23069 11.8277 6.42714C11.4339 4.72972 11.9719 2.95102 13.2416 1.75779C15.21 -0.0925323 18.3058 0.00230643 20.1561 1.96973C21.2506 1.75392 22.2997 1.35231 23.2597 0.783274C22.8948 1.91456 22.1313 2.87553 21.1113 3.48618C22.08 3.37198 23.0264 3.11263 23.9177 2.71682C23.2616 3.70005 22.4352 4.5565 21.479 5.24843Z" fill="#2C3E50"/>
</g>
<defs>
<clipPath id="clip0_6_159">
<rect width="24" height="19.7419" fill="white" transform="translate(0 0.284882)"/>
</clipPath>
</defs>
</svg>
