<svg width="24" height="25" viewBox="0 0 24 25" fill="none" xmlns="http://www.w3.org/2000/svg">
<g clip-path="url(#clip0_6_162)">
<path fill-rule="evenodd" clip-rule="evenodd" d="M12 0.155838C5.37 0.155838 0 5.52584 0 12.1558C0 17.4658 3.435 21.9508 8.205 23.5408C8.805 23.6458 9.03 23.2858 9.03 22.9708C9.03 22.6858 9.015 21.7408 9.015 20.7358C6 21.2908 5.22 20.0008 4.98 19.3258C4.845 18.9808 4.26 17.9158 3.75 17.6308C3.33 17.4058 2.73 16.8508 3.735 16.8358C4.68 16.8208 5.355 17.7058 5.58 18.0658C6.66 19.8808 8.385 19.3708 9.075 19.0558C9.18 18.2758 9.495 17.7508 9.84 17.4508C7.17 17.1508 4.38 16.1158 4.38 11.5258C4.38 10.2208 4.845 9.14084 5.61 8.30084C5.49 8.00084 5.07 6.77084 5.73 5.12084C5.73 5.12084 6.735 4.80584 9.03 6.35084C9.99 6.08084 11.01 5.94584 12.03 5.94584C13.05 5.94584 14.07 6.08084 15.03 6.35084C17.325 4.79084 18.33 5.12084 18.33 5.12084C18.99 6.77084 18.57 8.00084 18.45 8.30084C19.215 9.14084 19.68 10.2058 19.68 11.5258C19.68 16.1308 16.875 17.1508 14.205 17.4508C14.64 17.8258 15.015 18.5458 15.015 19.6708C15.015 21.2758 15 22.5658 15 22.9708C15 23.2858 15.225 23.6608 15.825 23.5408C20.565 21.9508 24 17.4508 24 12.1558C24 5.52584 18.63 0.155838 12 0.155838Z" fill="#2C3E50"/>
</g>
<defs>
<clipPath id="clip0_6_162">
<rect width="24" height="24" fill="white" transform="translate(0 0.155838)"/>
</clipPath>
</defs>
</svg>
